<svg xmlns="http://www.w3.org/2000/svg" xmlns:xlink="http://www.w3.org/1999/xlink" width="344.596" height="384.242" viewBox="0 0 344.596 384.242">
  <defs>
    <linearGradient id="linear-gradient" x1="1.124" y1="0.556" x2="2.107" y2="0.763" gradientUnits="objectBoundingBox">
      <stop offset="0" stop-color="#b37cff"/>
      <stop offset="1" stop-color="#f895e7"/>
    </linearGradient>
    <linearGradient id="linear-gradient-2" x1="1.179" y1="0.57" x2="2.131" y2="0.769" xlink:href="#linear-gradient"/>
    <linearGradient id="linear-gradient-3" x1="0.445" y1="0.228" x2="0.588" y2="0.931" gradientUnits="objectBoundingBox">
      <stop offset="0" stop-color="#00c855"/>
      <stop offset="1" stop-color="#009ec8"/>
    </linearGradient>
    <linearGradient id="linear-gradient-4" x1="0.358" y1="0.521" x2="0.214" y2="0.762" gradientUnits="objectBoundingBox">
      <stop offset="0" stop-color="#38f687"/>
      <stop offset="1" stop-color="#76eaff"/>
    </linearGradient>
    <linearGradient id="linear-gradient-5" x1="0.445" y1="0.228" x2="0.588" y2="0.931" gradientUnits="objectBoundingBox">
      <stop offset="0" stop-color="#a9fb00"/>
      <stop offset="1" stop-color="#12de13"/>
    </linearGradient>
    <linearGradient id="linear-gradient-6" x1="0.358" y1="0.521" x2="0.214" y2="0.762" gradientUnits="objectBoundingBox">
      <stop offset="0" stop-color="#d9ff89"/>
      <stop offset="1" stop-color="#25ff26"/>
    </linearGradient>
    <linearGradient id="linear-gradient-7" x1="0.413" y1="0.201" x2="0.665" y2="0.923" gradientUnits="objectBoundingBox">
      <stop offset="0" stop-color="#fdb441"/>
      <stop offset="1" stop-color="#ff20b3"/>
    </linearGradient>
    <linearGradient id="linear-gradient-8" x1="0.313" y1="0.528" x2="0.191" y2="0.691" gradientUnits="objectBoundingBox">
      <stop offset="0" stop-color="#ffce6d"/>
      <stop offset="1" stop-color="#ca1b77"/>
    </linearGradient>
    <linearGradient id="linear-gradient-9" x1="1.286" y1="-2.479" x2="0.35" y2="1.16" xlink:href="#linear-gradient-8"/>
    <linearGradient id="linear-gradient-10" x1="0.413" y1="0.201" x2="0.665" y2="0.923" gradientUnits="objectBoundingBox">
      <stop offset="0" stop-color="#ffe71f"/>
      <stop offset="1" stop-color="#ff8602"/>
    </linearGradient>
    <linearGradient id="linear-gradient-11" x1="0.313" y1="0.528" x2="0.191" y2="0.691" gradientUnits="objectBoundingBox">
      <stop offset="0" stop-color="#fff78c"/>
      <stop offset="1" stop-color="#e76008"/>
    </linearGradient>
    <linearGradient id="linear-gradient-12" x1="1.286" y1="-2.479" x2="0.351" y2="1.16" xlink:href="#linear-gradient-11"/>
    <linearGradient id="linear-gradient-13" y1="0.5" x2="1" y2="0.5" gradientUnits="objectBoundingBox">
      <stop offset="0" stop-color="#662d91"/>
      <stop offset="1"/>
    </linearGradient>
    <linearGradient id="linear-gradient-15" x1="0.586" y1="0.219" x2="0.187" y2="1.53" xlink:href="#linear-gradient-13"/>
    <linearGradient id="linear-gradient-16" x1="0.759" y1="0.111" x2="0.022" y2="1.217" gradientUnits="objectBoundingBox">
      <stop offset="0" stop-color="#c100ff"/>
      <stop offset="1" stop-color="#6e00ff"/>
    </linearGradient>
    <linearGradient id="linear-gradient-17" x1="0.5" y1="0.098" x2="0.5" y2="0.925" gradientUnits="objectBoundingBox">
      <stop offset="0" stop-color="#662d91"/>
      <stop offset="1" stop-color="#030b30"/>
    </linearGradient>
    <linearGradient id="linear-gradient-18" x1="0.41" y1="0.249" x2="0.493" y2="0.304" gradientUnits="objectBoundingBox">
      <stop offset="0" stop-color="#5c5e5e"/>
      <stop offset="1" stop-color="#0f0f0f"/>
    </linearGradient>
    <linearGradient id="linear-gradient-19" x1="-5.932" y1="12.63" x2="-5.932" y2="12.625" gradientUnits="objectBoundingBox">
      <stop offset="0" stop-color="#d81ca0"/>
      <stop offset="1" stop-color="#6d0e51"/>
    </linearGradient>
    <linearGradient id="linear-gradient-23" x1="1.76" y1="1.504" x2="1.115" y2="1.525" gradientUnits="objectBoundingBox">
      <stop offset="0" stop-color="#fff"/>
      <stop offset="1" stop-color="#e1ceba"/>
    </linearGradient>
    <linearGradient id="linear-gradient-24" x1="5.163" y1="1.519" x2="4.602" y2="1.54" xlink:href="#linear-gradient-23"/>
    <linearGradient id="linear-gradient-25" x1="0.389" y1="3.038" x2="1.389" y2="3.038" gradientUnits="objectBoundingBox">
      <stop offset="0" stop-color="#985f2a"/>
      <stop offset="0.58" stop-color="#b5865a"/>
      <stop offset="1" stop-color="#985f2a"/>
    </linearGradient>
    <linearGradient id="linear-gradient-26" x1="0.388" y1="3.039" x2="1.388" y2="3.039" gradientUnits="objectBoundingBox">
      <stop offset="0" stop-color="#a56c37"/>
      <stop offset="0.58" stop-color="#c29367"/>
      <stop offset="1" stop-color="#a56c37"/>
    </linearGradient>
    <linearGradient id="linear-gradient-27" x1="0.387" y1="3.038" x2="1.387" y2="3.038" gradientUnits="objectBoundingBox">
      <stop offset="0" stop-color="#cc9b6e"/>
      <stop offset="0.535" stop-color="#deb793"/>
      <stop offset="1" stop-color="#cc9b6e"/>
    </linearGradient>
    <linearGradient id="linear-gradient-28" x1="0.415" y1="2.79" x2="1.415" y2="2.79" gradientUnits="objectBoundingBox">
      <stop offset="0" stop-color="#a56c37"/>
      <stop offset="0.588" stop-color="#cfa37a"/>
      <stop offset="1" stop-color="#a56c37"/>
    </linearGradient>
    <linearGradient id="linear-gradient-29" x1="0.74" y1="3.903" x2="1.157" y2="2.726" gradientUnits="objectBoundingBox">
      <stop offset="0" stop-color="#ffdeba"/>
      <stop offset="1" stop-color="#f3c295"/>
    </linearGradient>
    <linearGradient id="linear-gradient-30" x1="0.744" y1="3.929" x2="1.161" y2="2.752" gradientUnits="objectBoundingBox">
      <stop offset="0" stop-color="#deb793"/>
      <stop offset="1" stop-color="#cc9b6e"/>
    </linearGradient>
    <linearGradient id="linear-gradient-31" x1="0.561" y1="7.262" x2="1.561" y2="7.262" xlink:href="#linear-gradient-25"/>
    <linearGradient id="linear-gradient-32" x1="2.325" y1="37.946" x2="3.325" y2="37.946" xlink:href="#linear-gradient-29"/>
    <linearGradient id="linear-gradient-33" x1="-0.017" y1="-0.48" x2="0.795" y2="-0.023" gradientUnits="objectBoundingBox">
      <stop offset="0.244" stop-color="#fff"/>
      <stop offset="0.721" stop-color="#d2b589"/>
    </linearGradient>
    <linearGradient id="linear-gradient-34" x1="0" y1="0.5" x2="1" y2="0.5" xlink:href="#linear-gradient-18"/>
    <linearGradient id="linear-gradient-35" x1="-792.25" y1="-455.31" x2="-785.586" y2="-455.31" xlink:href="#linear-gradient-18"/>
  </defs>
  <g id="Group_107" data-name="Group 107" transform="translate(-15 -261.466)">
    <path id="Path_19" data-name="Path 19" d="M495.363,463.557c9.471,86.733-39.375,117.366-125.216,117.366S207.042,510.612,197.571,423.881s94.7-153.851,180.538-153.851S485.892,376.826,495.363,463.557Z" transform="translate(-161.441 31.588)" opacity="0.25" fill="url(#linear-gradient)"/>
    <path id="Path_20" data-name="Path 20" d="M484.316,426.461c8.951,81.982-52.029,148.44-136.2,148.44s-142.638-16.778-151.59-98.76,82.961-208.387,207.114-201.6C488.194,279.166,475.364,344.479,484.316,426.461Z" transform="translate(-162.161 34.504)" opacity="0.25" fill="url(#linear-gradient-2)"/>
    <g id="Group_39" data-name="Group 39" transform="translate(244.97 261.466)">
      <path id="Path_21" data-name="Path 21" d="M327.579,267.526l44.2-25.515c2.5-1.442,4.539-.261,4.539,2.622V266.2a10.069,10.069,0,0,1-4.539,7.864l-7.935,4.581v11.7l-9.85-6.013-26.409,15.249c-2.5,1.442-4.541.263-4.541-2.622V275.389A10.072,10.072,0,0,1,327.579,267.526Z" transform="translate(-319.916 -239.524)" fill="url(#linear-gradient-3)"/>
      <path id="Path_22" data-name="Path 22" d="M324.314,297.722V276.151a10.072,10.072,0,0,1,4.537-7.864l44.2-25.515a3.422,3.422,0,0,1,2.863-.47h0l-2.841-1.745a3.224,3.224,0,0,0-3.146.344l-44.2,25.515a10.072,10.072,0,0,0-4.539,7.864v21.573a3.172,3.172,0,0,0,1.349,2.94l3.08,1.841A3.2,3.2,0,0,1,324.314,297.722Z" transform="translate(-321.188 -240.285)" fill="url(#linear-gradient-4)"/>
    </g>
    <g id="Group_40" data-name="Group 40" transform="translate(51.743 362.747)">
      <path id="Path_23" data-name="Path 23" d="M214.008,331.977l51.3-29.621c2.9-1.673,5.269-.305,5.269,3.043l0,25.043a11.7,11.7,0,0,1-5.269,9.128l-9.211,5.318v13.578l-11.437-6.979-30.658,17.7c-2.9,1.673-5.271.305-5.271-3.043V341.1A11.685,11.685,0,0,1,214.008,331.977Z" transform="translate(-205.11 -299.471)" fill="url(#linear-gradient-5)"/>
      <path id="Path_24" data-name="Path 24" d="M210.213,367.031V341.988a11.685,11.685,0,0,1,5.271-9.127l51.3-29.621a3.971,3.971,0,0,1,3.323-.546h0l-3.3-2.023a3.736,3.736,0,0,0-3.654.4l-51.3,29.619a11.693,11.693,0,0,0-5.269,9.127v25.045a3.683,3.683,0,0,0,1.566,3.414l3.573,2.136A3.716,3.716,0,0,1,210.213,367.031Z" transform="translate(-206.586 -300.354)" fill="url(#linear-gradient-6)"/>
    </g>
    <g id="Group_41" data-name="Group 41" transform="translate(40.915 301.095)">
      <path id="Path_25" data-name="Path 25" d="M251.815,265.551,206.69,291.6a10.29,10.29,0,0,0-4.633,8.029v22.025c0,2.944,2.086,4.148,4.633,2.676l8.1-4.677V331.6l10.057-17.748,26.965-15.568a10.286,10.286,0,0,0,4.635-8.027V268.226C256.45,265.283,254.364,264.079,251.815,265.551Z" transform="translate(-198.865 -263.011)" fill="url(#linear-gradient-7)"/>
      <path id="Path_26" data-name="Path 26" d="M203.356,322.432V300.407a10.29,10.29,0,0,1,4.633-8.029l45.124-26.05a3.294,3.294,0,0,1,3.188-.357l0,0-3.1-1.863a3.247,3.247,0,0,0-3.286.31L204.8,290.468a10.284,10.284,0,0,0-4.635,8.029v22.025a3.189,3.189,0,0,0,1.462,3.048l3.055,1.833v0A3.272,3.272,0,0,1,203.356,322.432Z" transform="translate(-200.164 -263.789)" fill="url(#linear-gradient-8)"/>
      <path id="Path_27" data-name="Path 27" d="M210.908,297.383l-3.19,1.842v8.189l3.19,1.784Z" transform="translate(-194.981 -240.741)" fill="url(#linear-gradient-9)"/>
    </g>
    <g id="Group_42" data-name="Group 42" transform="translate(265.871 312.931)">
      <path id="Path_28" data-name="Path 28" d="M395.089,272.907l-53.732,31.02a12.245,12.245,0,0,0-5.52,9.56v26.228c0,3.505,2.484,4.94,5.52,3.187L351,337.333v14.22l11.974-21.135,32.111-18.538a12.244,12.244,0,0,0,5.52-9.558v-26.23C400.609,272.586,398.126,271.153,395.089,272.907Z" transform="translate(-332.038 -269.883)" fill="url(#linear-gradient-10)"/>
      <path id="Path_29" data-name="Path 29" d="M337.383,340.641V314.413a12.245,12.245,0,0,1,5.52-9.56l53.732-31.02a3.926,3.926,0,0,1,3.8-.427l0,0-3.686-2.217a3.864,3.864,0,0,0-3.913.369L339.1,302.578a12.248,12.248,0,0,0-5.518,9.56v26.227c0,1.823.669,3.086,1.738,3.632l3.639,2.182v0A3.9,3.9,0,0,1,337.383,340.641Z" transform="translate(-333.584 -270.809)" fill="url(#linear-gradient-11)"/>
      <path id="Path_30" data-name="Path 30" d="M346.378,310.813l-3.8,2.194v9.752l3.8,2.124Z" transform="translate(-327.413 -243.363)" fill="url(#linear-gradient-12)"/>
    </g>
    <g id="Group_54" data-name="Group 54" transform="translate(82.474 280.196)">
      <path id="Path_31" data-name="Path 31" d="M422.434,402.149c18.924,6.324-4.208,20.395-24.639,36.31s-65.35,41.1-65.35,41.1l-45.038-50.211s83.518-37.876,95.066-38.412S422.434,402.149,422.434,402.149Z" transform="translate(-181.868 -155.67)" fill-rule="evenodd" opacity="0.2" style="mix-blend-mode: multiply;isolation: isolate"/>
      <g id="Group_43" data-name="Group 43" transform="translate(185.28 235.266)">
        <path id="Path_32" data-name="Path 32" d="M335.588,406.945l-.878,5.871s-.406,3.89,4.4,4.328,6.555-2.789,7.975-5.1,4.93-7.056,8.717-7.727,10.889-6.771,9.332-10.573c-1.352-3.3-9.464-4.473-17.439.806v2.128s0,5.239-4.4,7.5A28,28,0,0,1,335.588,406.945Z" transform="translate(-334.701 -390.929)" fill="#001135" fill-rule="evenodd"/>
        <path id="Path_33" data-name="Path 33" d="M355.8,402.476c-3.787.671-7.3,5.416-8.717,7.727s-3.175,5.537-7.975,5.1c-3.389-.31-4.183-2.339-4.357-3.5l-.039.256a3.714,3.714,0,0,0,.049.887h0v0a4.039,4.039,0,0,0,.228.83l.578,2.111a6.876,6.876,0,0,0,8.526.288c2.681-1.873,4.9-6.424,4.9-6.424v-1.172c1.754-2.19,4.217-4.561,6.808-5.019,3.583-.639,10.133-6.134,9.506-9.943C364.758,397.306,359.053,401.9,355.8,402.476Z" transform="translate(-334.701 -389.087)" fill="#181818" fill-rule="evenodd"/>
      </g>
      <path id="Path_34" data-name="Path 34" d="M354.088,400.272s4.389,18.223-16.473,21.245L330.38,391.55l16.717-11.5S350.709,397.114,354.088,400.272Z" transform="translate(-152.385 -163.129)" fill="#2b434d"/>
      <g id="Group_44" data-name="Group 44" transform="translate(58.882 186.421)">
        <path id="Path_35" data-name="Path 35" d="M358.362,432.128l-98.627-56.943v4.926l98.627,56.943Z" transform="translate(-259.735 -352.885)" fill="url(#linear-gradient-13)"/>
        <path id="Path_36" data-name="Path 36" d="M356.853,400.658v-4.926l-38.623,22.3v4.926Z" transform="translate(-219.604 -338.789)" fill="url(#linear-gradient-13)"/>
        <path id="Path_37" data-name="Path 37" d="M396.985,418.9l-98.626-56.943-38.624,22.3L358.362,441.2Z" transform="translate(-259.735 -361.959)" fill="url(#linear-gradient-15)"/>
      </g>
      <g id="Group_45" data-name="Group 45" transform="translate(206.881 246.48)">
        <path id="Path_38" data-name="Path 38" d="M376.942,397.764c-5.011.693-9.047,3.78-14.878.959,0,0-3.4,4.847-12.812,6.537l-1.123,3.838a17.154,17.154,0,0,0-.432,7.233s2.387,4.114,8.194,2.445,7.112-3.748,14.271-3.956c6.3-.187,15.014-4.424,16.808-10.376S382.459,397,376.942,397.764Z" transform="translate(-347.512 -397.58)" fill="#001135" fill-rule="evenodd"/>
        <path id="Path_39" data-name="Path 39" d="M387.177,400.808a7.266,7.266,0,0,1-.282,1.421c-1.794,5.952-10.5,10.189-16.808,10.376-7.159.207-8.466,2.285-14.271,3.956s-8.194-2.445-8.194-2.445v1.029l.02,1.074a5.68,5.68,0,0,0,5.519,3.05c4.214-.067,10.964-3.392,10.964-3.392v-1.389a22.79,22.79,0,0,1,5.962-.855c6.3-.187,15.014-4.424,16.808-10.376A6.165,6.165,0,0,0,387.177,400.808Z" transform="translate(-347.437 -395.365)" fill="#001135" fill-rule="evenodd"/>
      </g>
      <path id="Path_40" data-name="Path 40" d="M364.493,370.6l2.674,5.07s-5.325,25.635,3.694,43.045c0,0-1.814,14.684-21.438,16.12,0,0-3.93-16.7-3.488-25.734S345,381.583,345,381.583Z" transform="translate(-142.357 -169.608)" fill="#2b434d"/>
      <path id="Path_41" data-name="Path 41" d="M384.2,373.975s-32.787,17.144-40.28,22.047-12.592,21.956-27.028,15.544c-19.193-8.518-17.631-18.046-14.52-28.66l16.471-7.323s21.172-4.4,35.7-10.3,22.076-7.638,25.841-3.064S384.2,373.975,384.2,373.975Z" transform="translate(-172.896 -177.138)" fill="#2b434d"/>
      <path id="Path_42" data-name="Path 42" d="M392.155,379.448s-32.787,17.146-40.28,22.047-13.811,13.15-29.51,11.384-15.149-13.886-12.04-24.5l16.473-7.323s21.172-4.4,35.706-10.293,22.072-7.638,25.837-3.064S392.155,379.448,392.155,379.448Z" transform="translate(-167.345 -173.383)" fill="#2b434d"/>
      <g id="Group_46" data-name="Group 46" transform="translate(132.536 100.238)">
        <path id="Path_43" data-name="Path 43" d="M326.954,357.817s.948-7.164,2.664-8.066,5.407.226,6.419-.653,2.2-4.672,2.89-5.674a22.143,22.143,0,0,0,2.738-5.841c.282-1.614-.273-2.558.594-3.875s1.62-7.677.939-10.791-5.837-10.643-16.2-10.1-15.584,8.769-15.885,14.659,2.214,13.091.322,16.856-3.686,6.56-7.038,7.72c0,0-5.166,5.685,8.262,8.982S326.954,357.817,326.954,357.817Z" transform="translate(-303.419 -309.51)" fill="#9c5222" fill-rule="evenodd"/>
        <path id="Path_44" data-name="Path 44" d="M327.294,310.933c-14.387-1.211-19.422,10.305-19.666,14.411a47.878,47.878,0,0,0,1.066,10.224,48.032,48.032,0,0,1,.578,6.62,12.175,12.175,0,0,0,4.9,2.954c3.9,1.194,8.508,1.074,9.408-.98s1.855-6.778,4.22-7.709S332.445,338,332.445,338l.732-.673s.929-4.077,2.268-5,2.484-2.441,2.371-3.637c-.091-.968-.162-4.023,2.408-4.847,0,0,1.062.224,1.885-2.6S339.236,311.938,327.294,310.933Z" transform="translate(-300.552 -310.844)" fill-rule="evenodd"/>
        <path id="Path_45" data-name="Path 45" d="M328.222,339.873c-1.843-1.529-4.654-4.36-4.966-7.57a24.417,24.417,0,0,1,.1-6.373,2.979,2.979,0,0,0-.713.175c-2.366.931-3.323,5.655-4.22,7.709a2.27,2.27,0,0,1-1.02,1.039c-.572,5.2-1.448,12.625-2.307,17.587,3.5-1.111,3.838-3.637,3.838-3.637s.948-7.164,2.664-8.066,5.407.226,6.419-.653A1.742,1.742,0,0,0,328.222,339.873Z" transform="translate(-295.404 -300.495)" fill="#9c5222" fill-rule="evenodd"/>
        <path id="Path_46" data-name="Path 46" d="M308.825,333.249v.049c.005.241.008.481,0,.713h0a12.175,12.175,0,0,0,4.9,2.954c3.9,1.194,8.508,1.074,9.408-.98s1.855-6.778,4.22-7.709S332,329.824,332,329.824l.732-.673s.929-4.077,2.268-5a6.838,6.838,0,0,0,1.489-1.393,70.986,70.986,0,0,1-15.222,6.685c-3.755.89-9.521-.749-13.018-2.052.187,1.482.384,2.937.5,4.306l0,.022C308.786,332.247,308.814,332.756,308.825,333.249Z" transform="translate(-300.106 -302.667)" fill-rule="evenodd"/>
        <path id="Path_47" data-name="Path 47" d="M322.51,328.492s.75-2.3-1.042-2.161-3.02,3.556-2.03,5.765,1.966,2.194,2.377.1S322.51,328.492,322.51,328.492Z" transform="translate(-292.67 -300.224)" fill="#9c5222" fill-rule="evenodd"/>
      </g>
      <path id="Path_48" data-name="Path 48" d="M315.075,333.557l-4.564-.305s-8.324-1.175-12.121,1.229-2.694,5.333-2.286,14.939,4.512,24.411,7.584,31.324,4.1,10.9,2.637,14.9-2.529,6.7-1.769,11.054c1.066,6.139,6.493,8.526,14.455,12.415s10.4,3.772,16.765,4.515c3.716.433,15.153,1.226,19.322-6.889s4.178-12.01,4.178-12.01a49.664,49.664,0,0,1-9.376-19.434c-2.6-11.514-.954-30.127-.954-30.127l-9.026-8.616c-1.288-1.226-7.291-4.611-7.291-4.611S313.234,341.633,315.075,333.557Z" transform="translate(-176.221 -195.43)" fill="#fbb03b"/>
      <path id="Path_49" data-name="Path 49" d="M316.257,381.986c.647-2.742,2.494-7.619,2.081-9.474s-3.893-5.131-.836-9.584a26.508,26.508,0,0,0,3.927-8.918l14.33.479a81.266,81.266,0,0,0,1.462,16.365,49.664,49.664,0,0,0,9.376,19.434s-.008,3.893-4.178,12.01-15.606,7.323-19.322,6.889a56,56,0,0,1-8.977-1.384C315.778,398.291,315.756,384.1,316.257,381.986Z" transform="translate(-163.542 -180.991)" fill="#fbb03b"/>
      <g id="Group_47" data-name="Group 47" transform="translate(159.514 132.349)">
        <path id="Path_50" data-name="Path 50" d="M336.507,351.232s1.688,5.7,5.235,8.22a4.728,4.728,0,0,1,.513,1.745,13.3,13.3,0,0,1-1.1,2.453l9.3,3.288.145-5.1L344.9,341.5Z" transform="translate(-307.696 -321.925)" fill="#703c28"/>
        <path id="Path_51" data-name="Path 51" d="M344.148,365.234a.959.959,0,0,1-1.448.555l-10.467-6.041a1.593,1.593,0,0,1-.685-1.789L340.5,330.6a.961.961,0,0,1,1.45-.555l10.467,6.043a1.59,1.59,0,0,1,.685,1.787Z" transform="translate(-311.144 -329.889)" fill="#e2e9ed"/>
        <path id="Path_52" data-name="Path 52" d="M343.541,365.336a.96.96,0,0,1-1.45.555l-10.465-6.043a1.587,1.587,0,0,1-.683-1.787l8.951-27.363a.961.961,0,0,1,1.45-.556l10.467,6.043a1.589,1.589,0,0,1,.685,1.789Z" transform="translate(-311.56 -329.82)" fill="#aeb5b9"/>
        <path id="Path_53" data-name="Path 53" d="M331.74,358.227a.394.394,0,0,1-.13-.336l8.865-27.093,10.219,5.9a.391.391,0,0,1,.13.337l-8.864,27.094Z" transform="translate(-311.059 -329.266)" fill="url(#linear-gradient-16)"/>
        <path id="Path_54" data-name="Path 54" d="M340.511,336.775c-.6.2-1.42,2.261-.452,4.264s2.843,5.618,2.713,6.458-2.576,3.746-2.677,5.911,2.16,5.911,2.16,5.911l6.2,6.2s.39-8.56.39-11-.177-7.152-1.153-9.282S343.03,335.935,340.511,336.775Z" transform="translate(-305.566 -325.212)" fill="#9c5222"/>
        <path id="Path_55" data-name="Path 55" d="M320.263,363.347c-2.256-7.774.582-18.6,1.872-19.634s2-3.165,7.363.388,10.076,10.555,12.145,15.256,7.813,12.258,7.813,12.258l4.009-11.3,9.491,2.2s.352,15.308-.631,20.344-3.44,14.08-9.767,12.853S321.742,368.44,320.263,363.347Z" transform="translate(-319.419 -321.492)" fill="#fbb03b"/>
        <path id="Path_56" data-name="Path 56" d="M345.811,373.21S346.955,361.1,347.2,354.3l-6-1.389-3.888,10.959,5.185,7.579Z" transform="translate(-307.148 -314.093)" fill="#fbb03b"/>
      </g>
      <path id="Path_57" data-name="Path 57" d="M350.775,469.117l-79.267-46.028-38.624,22.3,16.608,9.589c-17.053,16-32.479,34.249-20.334,39.078,7.451,2.961,18.717,8.783,35.44,1.646,6.35-2.71,18.193-8.405,30.44-14.428l17.115,10.143Z" transform="translate(-224.812 -133.599)" opacity="0.2" style="mix-blend-mode: multiply;isolation: isolate"/>
      <g id="Group_48" data-name="Group 48" transform="translate(39.784)">
        <path id="Path_58" data-name="Path 58" d="M248.408,262.518c0-6.356,4.5-8.956,10.007-5.778l88.247,50.95c5.5,3.177,10,10.975,10,17.326l0,260.425c0,6.353-4.5,8.953-10.005,5.775L258.415,540.27c-5.508-3.177-10.007-10.976-10.007-17.329Z" transform="translate(-248.408 -248.657)" fill="#444343"/>
        <path id="Path_59" data-name="Path 59" d="M350.008,588.773a6.451,6.451,0,0,1-3.1-1L258.667,536.83c-4.692-2.706-8.658-9.57-8.658-14.989l0-260.422c0-1.334.28-4.433,2.858-4.433a6.454,6.454,0,0,1,3.1.995l88.249,50.948c4.691,2.71,8.655,9.572,8.655,14.987l-.007,260.425C352.861,585.674,352.585,588.773,350.008,588.773Z" transform="translate(-247.31 -247.557)" fill="url(#linear-gradient-17)"/>
        <path id="Path_60" data-name="Path 60" d="M355.39,588.178l0-260.425c0-6.351-4.5-14.15-10-17.326l-88.247-50.95c-2.661-1.536-5.077-1.71-6.876-.776v-.012l11.87-6.824c1.775-.823,4.122-.6,6.685.884L357.073,303.7c5.5,3.178,10,10.976,10,17.329l0,260.425c0,3.222-1.157,5.481-3.016,6.507L353,594.263C354.486,593.1,355.39,591.019,355.39,588.178Z" transform="translate(-247.134 -251.394)" fill="url(#linear-gradient-18)"/>
      </g>
      <g id="heart" transform="translate(44.263 60.282)">
        <ellipse id="Oval" cx="39.504" cy="96.429" rx="39.504" ry="96.429" transform="matrix(0.993, -0.117, 0.117, 0.993, 0, 9.239)" fill="url(#linear-gradient-19)"/>
        <g id="Group_49" data-name="Group 49" transform="translate(21.005 33.619)">
          <path id="Path_2" data-name="Path 2" d="M287.737,328.194c1.109-1.035,2.158-2.172,3.269-3.013,2.433-2.111,5.294-2.05,8.135.172,4.576,3.807,7.678,11.563,9.631,21.9,2.347,11.877,1.566,24.283-1.957,31.127-1.9,3.436-4.31,5.259-6.958,5.249-.964.037-2-.629-2.967-.661-3.239-.1-5.768,2.322-6.8,9.351a52.578,52.578,0,0,0,1.03,18.076,65.022,65.022,0,0,0,4.188,13.183c.238.536.465,1.1.7,1.647-.035.172-.073.346-.108.518-1.855-2.411-3.762-4.581-5.559-7.289-7.424-11.162-13.505-25.755-18.685-42.486a197.268,197.268,0,0,1-6.7-28.623,102.539,102.539,0,0,1-1.383-19.842c.555-11.953,3.615-18.329,8.486-20.086,5.191-1.868,9.653,4.294,13.612,14.563.383.99.738,2.038,1.087,3.084S287.418,327.186,287.737,328.194Z" transform="translate(-263.523 -307.086)" fill="#fff"/>
          <path id="Path_3" data-name="Path 3" d="M284.283,407.808c-2.263-8.572-3.561-16.933-1.806-24.645,1.457-6.4,4.256-8.032,7.522-7.24a6.35,6.35,0,0,0,5.008-.5c8.29-4.964,8.7-25.571,4.342-41.359q-1.227-4.084-2.6-7.951c1.995-.233,4.109.894,6.107,3.254,5.379,6.448,9.2,19.4,9.553,32.361A57.363,57.363,0,0,1,309.86,380.2a47.332,47.332,0,0,1-9.783,17.955c-4.475,5.065-9.425,8.255-14.679,9.457C285.063,407.687,284.718,407.73,284.283,407.808Z" transform="translate(-251.078 -294.054)" fill="#fff"/>
        </g>
      </g>
      <path id="Path_61" data-name="Path 61" d="M353.946,425.686l-71.538-22.248-34,1.845v16.082c0,6.353,4.5,14.153,10.007,17.329L334.586,482.6Z" transform="translate(-208.624 -147.081)" opacity="0.5" style="mix-blend-mode: multiply;isolation: isolate"/>
      <g id="Group_50" data-name="Group 50" transform="translate(8.071 216.735)">
        <path id="Path_62" data-name="Path 62" d="M328.227,450.107,229.6,393.164v4.926l98.627,56.943Z" transform="translate(-229.599 -370.865)" fill="url(#linear-gradient-13)"/>
        <path id="Path_63" data-name="Path 63" d="M326.717,418.637v-4.926l-38.623,22.3v4.926Z" transform="translate(-189.467 -356.768)" fill="url(#linear-gradient-13)"/>
        <path id="Path_64" data-name="Path 64" d="M366.849,436.881l-98.626-56.943-38.624,22.3,98.627,56.943Z" transform="translate(-229.599 -379.938)" fill="url(#linear-gradient-15)"/>
      </g>
      <path id="Path_65" data-name="Path 65" d="M298.426,362.459s.064,3.9-2.382,4.443a3.64,3.64,0,0,1-3.746-1.421s-.651,4.915-7.641,4.018a6.8,6.8,0,0,1-4.876-2.517s-4.281,2.3-8.268-1.968-2.431-6.319-2.431-6.319a6.717,6.717,0,0,1-3.6-5.434,11.954,11.954,0,0,1,1.981-6.658s-3.074-6.06-1.1-9.752a15.421,15.421,0,0,1,3.809-5.016,5.73,5.73,0,0,1,4.057-5.448c4.188-1.366,8.781,1.3,8.781,1.3s4.873-4.015,11.708-.476,6.65,6.645,6.65,6.645,6.667,2.261,7.016,5.832a12.024,12.024,0,0,1-1.6,6.707s2.848.956,1.63,3.283a4.949,4.949,0,0,1-3.053,2.7s3.156,2.344,1.507,4.192a3.489,3.489,0,0,1-3.95.781s.14,4.348-.88,4.991S298.426,362.459,298.426,362.459Z" transform="translate(-196.912 -200.377)" opacity="0.2" style="mix-blend-mode: multiply;isolation: isolate"/>
      <path id="Path_66" data-name="Path 66" d="M274.145,328.1c.58,0,15.595-8.272,22.361,9.361,4.008,10.447-1.509,19.381,1.673,24.613s12,7.523,12.942,19.331,2.123,39.742-2.473,45.871-11,10.255-10.981,11.2-2.458,11.585-2.458,11.585l-18.731-9.778Z" transform="translate(-190.967 -200.098)" opacity="0.2" style="mix-blend-mode: multiply;isolation: isolate"/>
      <path id="Path_67" data-name="Path 67" d="M276.485,393.67,253.4,416.643l27.958,16.141a115.474,115.474,0,0,0,28.08-28.387h0l-20.231-11.681Z" transform="translate(-205.198 -154.437)" opacity="0.2" style="mix-blend-mode: multiply;isolation: isolate"/>
      <g id="Group_53" data-name="Group 53" transform="translate(8.296 125.378)">
        <path id="Path_68" data-name="Path 68" d="M241.987,444.172s-3.212,10.02-4.237,13.345-4.35,7.69-4.35,7.69,1.435,5.412,4.493,5.316,10.266-10.042,11.293-11.206,2.88-14.134,2.88-14.134Z" transform="translate(-227.217 -244.513)" fill="#703c28"/>
        <path id="Path_69" data-name="Path 69" d="M236.142,460.746a5.69,5.69,0,0,0,6.227,3.264c4.5-.809,7.291-6.535,9.01-10.936s5.016-4.348,4.819-4.21-5.648,18.614-8.181,20.89-14.928,6-17.6,3.553S233.6,463.455,236.142,460.746Z" transform="translate(-229.733 -241.322)" fill="#afa604"/>
        <path id="Path_70" data-name="Path 70" d="M245.1,447.288s-1.023,8.923-2.337,12.184,1.469,11.287,3.929,11.762,6.281-5.139,6.453-6.646,1.018-8.253,1.733-10.275-.342-10.821-.342-10.821Z" transform="translate(-221.027 -244.98)" fill="#703c28"/>
        <path id="Path_71" data-name="Path 71" d="M297.344,390.572s-13.037,4.78-24.532,1.46-13.976-8.72-13.976-8.72l-2.31,5.468s-2.563,21.917,7.828,22.789,35.257-8.908,35.257-8.908S299.392,395.732,297.344,390.572Z" transform="translate(-211.543 -286.267)" fill="#4a4868"/>
        <path id="Path_72" data-name="Path 72" d="M305.464,393.933c-5.163-.779-21.206,3.753-30.467,8.756s-30.665,24.177-32.368,27.227-1.187,8.43-.5,13.89-1.3,21.28-2.394,27.309-1.7,8.53-1.7,8.53,7.188,2.512,12.042-1.066,4.3-26.426,4.3-26.426l7.7-17.542s27.265-11.4,37.55-16.517,12.246-16.63,12.485-22.231C312.178,394.457,305.464,393.933,305.464,393.933Z" transform="translate(-224.036 -279.04)" fill="#5b567f"/>
        <path id="Path_73" data-name="Path 73" d="M299.633,417.9c10.285-5.121,12.246-16.63,12.485-22.231.032-.737-1.8-1.231-3.548-1.536.019,5.072-.9,11.969-5.5,15.552-6.759,5.264-28.2,13.126-33.883,15.161,1.28-7.26,3.5-14.765,4.962-16.788a13.125,13.125,0,0,0,2.094-6.21c-.425.214-.841.428-1.243.646-9.262,5-30.665,24.177-32.368,27.227s-1.187,8.43-.5,13.89-1.3,21.28-2.394,27.309-1.7,8.53-1.7,8.53,7.188,2.512,12.042-1.066,4.3-26.426,4.3-26.426l7.7-17.542S289.348,423.018,299.633,417.9Z" transform="translate(-224.036 -278.844)" fill="#4a4868"/>
        <path id="Path_74" data-name="Path 74" d="M266.119,386.555a36.568,36.568,0,0,0-14.055,13.2c-5.869,9.434-7.235,14.959-7.576,20.45s-2.645,21.921-2.156,29.27,1.91,39.417,1.91,39.417,10.545,1.828,11.846-5.75c0,0-.147-17.569,1.523-24.387s3.48-11.843,3.8-15.192-.172-21.663-.172-21.663,10.032-10.422,11.765-12.533,2.784-8.419.524-12.838C271.863,393.271,266.119,386.555,266.119,386.555Z" transform="translate(-221.136 -284.042)" fill="#5b567f"/>
        <path id="Path_75" data-name="Path 75" d="M255.473,371.545l-1.239.034-3.05,3.219,3.344,6.078,6.835-.708a3.48,3.48,0,0,0,.234-4.654C259.759,372.7,255.473,371.545,255.473,371.545Z" transform="translate(-215.016 -294.34)" fill="#703c28"/>
        <path id="Path_76" data-name="Path 76" d="M277.8,346.336s-5.736,15.5,6.537,19.422,19.811-16.979,19.811-16.979,10.661,10.644,12.044,15.971-9.518,20.7-9.518,20.7S297.1,399.6,297.1,404.293s2.974,17.3,2.974,17.3-2.244,5.9-21.354,4.229-22.634-13.229-22.634-13.229,3.158-4.866,6.22-8.894,4.537-15.008,4.537-15.008-9.25-4.414-5.082-11.835,7.788-13,9.1-19.574a39.005,39.005,0,0,1,4.669-11.858Z" transform="translate(-211.655 -312.262)" fill="#b2165b"/>
        <path id="Path_77" data-name="Path 77" d="M302.674,374.561a99.865,99.865,0,0,0,7.344-12.29,7.875,7.875,0,0,0-4.089-.964c-9.847.379-7.019,6.616-7.918,12.9s-6.861,11.624-13.36,10.379-12.583-6.5-12.583-6.5a24.693,24.693,0,0,1-9.228-.287s-.307,2.278-.929,5.137c9.773,2.75,18.479,10.968,19.488,20.041a43.287,43.287,0,0,1-.491,12.249c13.421.039,15.163-4.525,15.163-4.525s-2.979-12.6-2.974-17.3S302.674,374.561,302.674,374.561Z" transform="translate(-207.656 -301.368)" fill="#931551"/>
        <path id="Path_78" data-name="Path 78" d="M268.855,352.822c-.067.207-4.674,12.664,2.753,17.854s21.406-5.394,22.45-7.208,2.522-10.6,2.522-10.6-9.858-6.984-10.639-12.167S268.855,352.822,268.855,352.822Z" transform="translate(-203.903 -316.165)" fill="#703c28"/>
        <path id="Path_79" data-name="Path 79" d="M278.663,346.9l-1.017-1.48s-6.7.091-8.764,4.483-4.672,17.449-6.409,21.911-5.522,11.194-6.208,12.767a3.887,3.887,0,0,0-.411,2.462l-2.861,2.457s9.312,2.807,7.129,8.589c0,0,5.721-4.32,7.149-10.986S278.663,346.9,278.663,346.9Z" transform="translate(-213.775 -312.262)" fill="#b2165b"/>
        <path id="Path_80" data-name="Path 80" d="M270.349,351.132c-.629.25.324,4.234-1.388,7.307s-8.951,19.381-10.693,21.067a11.344,11.344,0,0,1-3.451,2.042,3.84,3.84,0,0,0-.148,1.3c1.875.836,4.569,2.465,4.1,4.8-.126.629-.29,1.3-.474,1.978a4.512,4.512,0,0,1,.68,4.544s5.721-4.32,7.149-10.986c.83-3.871,4.534-16.793,7.5-26.955C272.26,353.717,270.692,351,270.349,351.132Z" transform="translate(-212.631 -308.348)" fill="#931551"/>
        <path id="Path_81" data-name="Path 81" d="M249.218,375.475s-.285-2.153.231-2.947a13.756,13.756,0,0,1,3.667-3.035c.432-.013,1.3.219.948,1.268a10.486,10.486,0,0,1-1.163,2.2s1.565.924,1.818,1.7a35.512,35.512,0,0,0,1.932,4.719c.568.921,1.33,3.124.55,3.731s-8.046-3.529-8.624-4.7S249.218,375.475,249.218,375.475Z" transform="translate(-216.911 -295.748)" fill="#703c28"/>
        <path id="Path_82" data-name="Path 82" d="M264.689,382.561l-11.077-10.317a5.7,5.7,0,0,0-2.1-1.14l-5.429-1.376c-.344-.088-.545-.062-.585.047l-.538.782.061.042c-.115.083-.042.273.243.541l11.079,10.317a5.7,5.7,0,0,0,2.092,1.14l5.431,1.376c.352.088.55.057.582-.061l0,0,.518-.845C265.032,382.974,264.941,382.8,264.689,382.561Z" transform="translate(-219.283 -295.622)" fill="#d4dbdf"/>
        <path id="Path_83" data-name="Path 83" d="M264.162,383.08c.494.462.364.7-.293.538l-5.431-1.376a5.7,5.7,0,0,1-2.092-1.14l-11.079-10.317c-.494-.462-.364-.7.293-.538l5.429,1.376a5.671,5.671,0,0,1,2.094,1.14Z" transform="translate(-219.282 -295.266)" fill="#aeb5b9"/>
        <path id="Path_84" data-name="Path 84" d="M281.869,385.948l.57-1.588a40.941,40.941,0,0,0-3.532-2.286c-.737-.309-2.318-.4-5.362-.079s-4.439,1.49-3.284,1.868a29.526,29.526,0,0,0,4.962.592c.833.056,1.652.322,1.666.757s.363,1.63,1.008,1.693A25.987,25.987,0,0,0,281.869,385.948Z" transform="translate(-202.205 -287.31)" fill="#703c28"/>
        <g id="Group_51" data-name="Group 51" transform="translate(63.974 84.797)">
          <path id="Path_85" data-name="Path 85" d="M280.27,378.533a11.162,11.162,0,0,0-10.1-.25,3.546,3.546,0,0,0-2.163,2.863l1.9,15.568a2.416,2.416,0,0,0,1.374,2.02,7.6,7.6,0,0,0,6.869.169,2.41,2.41,0,0,0,1.472-1.947L282.29,381.5A3.553,3.553,0,0,0,280.27,378.533Z" transform="translate(-267.445 -375.26)" fill="#f5f0ee"/>
          <path id="Path_86" data-name="Path 86" d="M277.314,390.652a7.6,7.6,0,0,1-6.869-.169,3,3,0,0,1-1.214-1.261,2.606,2.606,0,0,0,1.3,1.587,7.381,7.381,0,0,0,6.68.165,2.6,2.6,0,0,0,1.376-1.519A2.96,2.96,0,0,1,277.314,390.652Z" transform="translate(-266.608 -367.01)" fill="#e1ceba"/>
          <path id="Path_87" data-name="Path 87" d="M272.182,377.389a8.444,8.444,0,0,0-2.008.762,3.546,3.546,0,0,0-2.163,2.863l1.9,15.568a2.416,2.416,0,0,0,1.374,2.02,6.754,6.754,0,0,0,2.858.873Z" transform="translate(-267.445 -375.128)" opacity="0.44" fill="url(#linear-gradient-23)" style="mix-blend-mode: multiply;isolation: isolate"/>
          <path id="Path_88" data-name="Path 88" d="M275.354,377.479a8.389,8.389,0,0,1,1.969.86,3.553,3.553,0,0,1,2.02,2.967l-2.666,15.455a2.418,2.418,0,0,1-1.474,1.947,6.724,6.724,0,0,1-2.9.732Z" transform="translate(-264.499 -375.066)" opacity="0.68" fill="url(#linear-gradient-24)" style="mix-blend-mode: multiply;isolation: isolate"/>
          <path id="Path_89" data-name="Path 89" d="M280.37,379.426a11.777,11.777,0,0,0-10.653-.265,5.061,5.061,0,0,0-1.706,1.421v0l.474,3.895a5.832,5.832,0,0,0,1.081.833,11.765,11.765,0,0,0,10.651.263,5.431,5.431,0,0,0,1.467-1.123l.54-3.131A4.681,4.681,0,0,0,280.37,379.426Z" transform="translate(-267.445 -374.698)" opacity="0.1" style="mix-blend-mode: multiply;isolation: isolate"/>
          <path id="Path_90" data-name="Path 90" d="M275.316,377.754a10.9,10.9,0,0,0-5.357,1.141,3.247,3.247,0,0,0-.152,6.151,11.765,11.765,0,0,0,10.651.263,3.247,3.247,0,0,0,.152-6.149A10.909,10.909,0,0,0,275.316,377.754Z" transform="translate(-267.676 -374.88)" fill="url(#linear-gradient-25)"/>
          <path id="Path_91" data-name="Path 91" d="M275.323,377.454a10.881,10.881,0,0,0-5.355,1.141,3.246,3.246,0,0,0-.153,6.149,11.77,11.77,0,0,0,10.649.265,3.246,3.246,0,0,0,.153-6.149A10.886,10.886,0,0,0,275.323,377.454Z" transform="translate(-267.671 -375.086)" fill="#8c531e"/>
          <path id="Path_92" data-name="Path 92" d="M275.328,377.289a10.883,10.883,0,0,0-5.357,1.141,3.246,3.246,0,0,0-.153,6.149,11.772,11.772,0,0,0,10.651.265,3.246,3.246,0,0,0,.153-6.149A10.873,10.873,0,0,0,275.328,377.289Z" transform="translate(-267.667 -375.199)" fill="url(#linear-gradient-26)"/>
          <path id="Path_93" data-name="Path 93" d="M275.333,377.057a10.872,10.872,0,0,0-5.357,1.141,3.246,3.246,0,0,0-.152,6.149,11.769,11.769,0,0,0,10.649.265,3.248,3.248,0,0,0,.153-6.151A10.885,10.885,0,0,0,275.333,377.057Z" transform="translate(-267.664 -375.359)" fill="url(#linear-gradient-27)"/>
          <path id="Path_94" data-name="Path 94" d="M282.011,381.494l-.282-1.762a3.532,3.532,0,0,0-1.872-2.431,10.451,10.451,0,0,0-9.457-.236,3.553,3.553,0,0,0-1.99,2.332l-.369,1.75a2.652,2.652,0,0,0-.032.327,3.49,3.49,0,0,0,1.983,2.91,10.951,10.951,0,0,0,9.909.246,3.485,3.485,0,0,0,2.124-2.809A2.345,2.345,0,0,0,282.011,381.494Z" transform="translate(-267.446 -376.048)" fill="url(#linear-gradient-28)"/>
          <path id="Path_95" data-name="Path 95" d="M275.009,376.051a9.671,9.671,0,0,0-4.756,1.013,2.883,2.883,0,0,0-.135,5.461,10.465,10.465,0,0,0,9.457.233,2.882,2.882,0,0,0,.135-5.458A9.659,9.659,0,0,0,275.009,376.051Z" transform="translate(-267.298 -376.048)" fill="url(#linear-gradient-29)"/>
          <path id="Path_96" data-name="Path 96" d="M274.983,376.061a9.572,9.572,0,0,0-4.711,1,2.856,2.856,0,0,0-.135,5.409,10.361,10.361,0,0,0,9.368.233,2.855,2.855,0,0,0,.133-5.409A9.571,9.571,0,0,0,274.983,376.061Z" transform="translate(-267.272 -376.041)" fill="url(#linear-gradient-30)"/>
          <path id="Path_97" data-name="Path 97" d="M279.444,379.68c0,.051,0,.1-.01.152a2.657,2.657,0,0,0-1.453-1.99,8.068,8.068,0,0,0-7.291-.18,2.652,2.652,0,0,0-1.551,1.915,1.176,1.176,0,0,1,0-.153,2.558,2.558,0,0,1,1.561-2.067,8.064,8.064,0,0,1,7.289.18A2.558,2.558,0,0,1,279.444,379.68Z" transform="translate(-266.674 -375.687)" fill="url(#linear-gradient-31)"/>
          <path id="Path_98" data-name="Path 98" d="M279.432,379.708a2.655,2.655,0,0,1-1.551,1.915,8.056,8.056,0,0,1-7.289-.182,2.019,2.019,0,0,1,.1-3.9,8.068,8.068,0,0,1,7.291.18A2.657,2.657,0,0,1,279.432,379.708Z" transform="translate(-266.673 -375.563)" fill="#cc9b6e"/>
          <path id="Path_99" data-name="Path 99" d="M273.915,380.721c-.044.005-.086.008-.128.012l-.062-.278a9,9,0,0,1-1.067.039,8.562,8.562,0,0,1-1.062-.093l-.076.277-.128-.019.118-.516a9.494,9.494,0,0,0,2.315.057Z" transform="translate(-265.127 -373.238)" fill="url(#linear-gradient-32)"/>
          <path id="Path_100" data-name="Path 100" d="M273.735,380.628a11.1,11.1,0,0,1-1.136.03c-.378-.01-.757-.039-1.131-.086l.076-.277a8.562,8.562,0,0,0,1.062.093,9,9,0,0,0,1.067-.039Z" transform="translate(-265.074 -373.133)" fill="#5a2100"/>
        </g>
        <path id="Path_101" data-name="Path 101" d="M291.333,384.855s-4.414,1.673-4.753,1.445-2.686-3.02-2.686-3.02a19.238,19.238,0,0,1-4.861,1.492c-1.622.051-7.791-.28-8.746-.25s-1.5.164-1.681.8.216,1.1,2.851,1.472,8.5,1.067,8.731,1.1.447.383.15.543a51.594,51.594,0,0,1-6.159.2c-.927-.066-4.713-.7-5.018-.826s-1.2-.4-1.523.258.433,1.706.433,1.706a1.085,1.085,0,0,0-.575,1c.079.659,1.6,1.517,1.6,1.517s-1.03.334-.727.968,2.922,1.553,4.068,1.9,6.39.668,8.451.035,7.919-1.8,9.233-2.087a49.126,49.126,0,0,1,5.427-.386l3.242-5.1Z" transform="translate(-203.828 -286.289)" fill="#703c28"/>
        <path id="Path_102" data-name="Path 102" d="M280.888,389.511c.3-.644.108-.765-.143-.927a18.554,18.554,0,0,0-3.431.3,20.406,20.406,0,0,1-4.687-.55c-1.066-.194-4.554-1.2-4.554-1.2a1.085,1.085,0,0,0-.575,1c.079.659,1.6,1.517,1.6,1.517s-1.03.334-.727.968,2.922,1.553,4.068,1.9a24.819,24.819,0,0,0,8.339.064c.044-.487-.416-1.185-.357-1.678A3.18,3.18,0,0,1,280.888,389.511Z" transform="translate(-203.828 -283.646)" fill="#703c28"/>
        <path id="Path_103" data-name="Path 103" d="M252.319,372.8a2.449,2.449,0,0,0-2.172-.1c-.833.357-2.949,2.03-2.821,2.988s.364,1.544,2.022,1.608a1.713,1.713,0,0,0,.337,1.728,3.9,3.9,0,0,0,1.757,1.088,13.671,13.671,0,0,0,1.718.939,6.715,6.715,0,0,1,1.539,1.029,8.807,8.807,0,0,0,1.8.29c.91.039,1.907-1.5,1.912-2.362s-1.131-1.239-1.131-1.239l-.976.594s-1.236.718-.555-.263,2.057-2.517,1.914-3.357a1.234,1.234,0,0,0-1.17-.939c-.066.017.179-1.082-.263-1.467s-1.293-.042-1.293-.042-3.962,3.057-4.171,3.212-.609-.344-.368-.617S253.713,373.913,252.319,372.8Z" transform="translate(-217.666 -293.686)" fill="#7a442a"/>
        <path id="Path_104" data-name="Path 104" d="M295.92,362.459s.064,3.9-2.382,4.443a3.64,3.64,0,0,1-3.746-1.421s-.651,4.915-7.641,4.018a6.8,6.8,0,0,1-4.876-2.517s-4.281,2.3-8.268-1.968-2.431-6.319-2.431-6.319a6.717,6.717,0,0,1-3.6-5.434,11.969,11.969,0,0,1,1.981-6.658s-3.074-6.06-1.1-9.752a15.421,15.421,0,0,1,3.809-5.016,5.73,5.73,0,0,1,4.057-5.448c4.188-1.366,8.783,1.3,8.783,1.3s4.871-4.015,11.706-.476,6.65,6.645,6.65,6.645,6.667,2.261,7.016,5.832a12.024,12.024,0,0,1-1.6,6.707s2.848.956,1.63,3.283a4.949,4.949,0,0,1-3.053,2.7s3.156,2.344,1.509,4.192a3.492,3.492,0,0,1-3.952.781s.142,4.348-.88,4.991S295.92,362.459,295.92,362.459Z" transform="translate(-206.927 -325.755)"/>
        <g id="Group_52" data-name="Group 52" transform="translate(55.61 1.269)">
          <path id="Path_105" data-name="Path 105" d="M269.244,338.581l-6.49,3.814c-.644,10.071,6.83,16.694,6.83,16.694s2.539.771,6.353-1.442C275.937,357.647,269.141,342.69,269.244,338.581Z" transform="translate(-262.715 -318.224)" fill="#422549"/>
          <path id="Path_106" data-name="Path 106" d="M266.179,351.25a8.6,8.6,0,0,0,1.543,5.743s-.6,2.377-.145,2.782a1.055,1.055,0,0,0,.949.258s2.441,4.246,3.912,5.195,5,.681,8.773-1.85A30.818,30.818,0,0,0,291.8,350.2c2.057-5.411,3.627-19.558-8.761-21.867s-16.881,9.81-17.78,12.067-.683,8.223-.194,8.757A3.981,3.981,0,0,1,266.179,351.25Z" transform="translate(-261.393 -325.451)" fill="#7a442a"/>
          <path id="Path_107" data-name="Path 107" d="M267.529,343.063a14.294,14.294,0,0,0-2.224-1.941,2.905,2.905,0,0,1,.418,1.158,8.6,8.6,0,0,0,1.543,5.743,11.914,11.914,0,0,0,.627-2.561A3.15,3.15,0,0,0,267.529,343.063Z" transform="translate(-260.938 -316.481)" fill="#703c28"/>
          <path id="Path_108" data-name="Path 108" d="M270.857,352.213a3.752,3.752,0,0,0,1.829.5c-1.956-1.413-3.659-5.524-3.876-5.566-.236-.046-1.865-.125-1.865-.125S269.386,351.264,270.857,352.213Z" transform="translate(-259.812 -312.436)" fill="#703c28"/>
          <path id="Path_109" data-name="Path 109" d="M266.179,347.416s-.01.1-.02.263a8.243,8.243,0,0,1,3.2-1.138c3.964-.7,8.671-.912,10.039-2.367,1.3-1.384-11.553-9.71-12.836-10.536a31.668,31.668,0,0,0-1.3,2.934c-.9,2.254-.683,8.223-.194,8.757A3.981,3.981,0,0,1,266.179,347.416Z" transform="translate(-261.393 -321.616)" fill="#703c28"/>
          <path id="Path_110" data-name="Path 110" d="M273.553,365.158a15.187,15.187,0,0,0,3.531-1.781A30.817,30.817,0,0,0,287.672,350.2c2.057-5.411,3.627-19.558-8.761-21.867a14.036,14.036,0,0,0-8.255.757l2.7,18.226a18.178,18.178,0,0,0,3.32,3.072c1.868,1.29,3.7,3.888,2.782,6.614C278.71,359.21,275.016,362.949,273.553,365.158Z" transform="translate(-257.266 -325.45)" fill="#7a442a"/>
          <path id="Path_111" data-name="Path 111" d="M301.256,363.032c-3.969-8.828-3.681-14.5-3.681-14.5l.423-.452s1.963-11.1-4.745-16.6c0,0-5.4-7.257-15.648-4.235-6.97,2.052-12.275,8.521-14.4,16.5-.587,2.2-.293,4.512-.45,6.931a19.93,19.93,0,0,0,1.853,9.562c-1.2-4.151-2.028-10.273,2.73-11.41,4.4-1.054,9.159,1.519,13.379.234,0,0,1.614,1.386,2.947,2.49,1.742,1.445,2.811,2.88,5.856-.209l2.915-.268s-1.9,4.9.7,8.668S301.256,363.032,301.256,363.032Z" transform="translate(-262.714 -326.507)"/>
          <path id="Path_112" data-name="Path 112" d="M287.707,335.706a27.551,27.551,0,0,0,5.547-4.227s-5.4-7.255-15.648-4.235c-6.97,2.052-12.275,8.521-14.4,16.5-.587,2.2-.293,4.512-.45,6.931a19.93,19.93,0,0,0,1.853,9.562c-1.2-4.151-2.028-10.273,2.73-11.41,4.4-1.054,9.159,1.519,13.379.234C280.715,349.064,282.979,338.616,287.707,335.706Z" transform="translate(-262.714 -326.507)" opacity="0.2" fill="url(#linear-gradient-33)" style="mix-blend-mode: multiply;isolation: isolate"/>
          <path id="Path_113" data-name="Path 113" d="M282.906,344.338c-1.044-5.109-6.8-7.665-6.8-7.665a7.075,7.075,0,0,0-1.023-.044,41.52,41.52,0,0,0-1.688,5.493s1.614,1.386,2.947,2.49c1.742,1.445,2.811,2.88,5.856-.209l.712-.066Z" transform="translate(-255.39 -319.565)" fill="#422549"/>
          <path id="Path_114" data-name="Path 114" d="M273.5,335.266c-7.547.239-10.565,6.93-10.565,6.93a11.736,11.736,0,0,1,10.293-5.829c7.08.212,8.108,3.672,8.108,3.672l.047.035c.179-.577.391-1.207.631-1.867C281.239,337.123,279.047,335.091,273.5,335.266Z" transform="translate(-262.565 -320.506)" fill="#422549"/>
          <path id="Path_115" data-name="Path 115" d="M266.118,338.361c8.741-.575,11.666,1.089,12.576,1.939.089-.341.2-.737.332-1.177C273.65,335.871,266.118,338.361,266.118,338.361Z" transform="translate(-260.38 -319)" fill="#422549"/>
          <path id="Path_116" data-name="Path 116" d="M268.389,331.8c6.736.147,10.167,3.492,11.465,5.161.236-.455.487-.9.75-1.334C275.781,330.918,268.389,331.8,268.389,331.8Z" transform="translate(-258.822 -322.918)" fill="#422549"/>
          <path id="Path_117" data-name="Path 117" d="M281.672,333.937c.438-.283.846-.56,1.234-.83-3.546-4.841-10.083-4.847-10.083-4.847C277.339,328.744,280.465,332.315,281.672,333.937Z" transform="translate(-255.779 -325.305)" fill="#422549"/>
          <path id="Path_118" data-name="Path 118" d="M286.385,349.15a16.558,16.558,0,0,0,1.03-5.7s-.631-7.173-9.891-9.547c0,0,10.617,4.247,8.892,14.713Z" transform="translate(-252.554 -321.43)" fill="#422549"/>
          <path id="Path_119" data-name="Path 119" d="M275.391,343.107c1.742,1.445,2.811,2.88,5.856-.209l.712-.066a8.066,8.066,0,0,0-.45-1.467c-2.979.889-5.92-2.544-5.92-2.544.48,1.592,3.524,4.1,3.524,4.1-1.767.3-4.34-1.684-4.34-1.684a12.173,12.173,0,0,0,3.443,2.75,7.477,7.477,0,0,1-2.919-.961C275.327,343.055,275.359,343.082,275.391,343.107Z" transform="translate(-254.443 -318.059)"/>
          <path id="Path_120" data-name="Path 120" d="M278.321,343.093c.179-1.035.777-3.259,2.806-3.408s1.834,1.826,1.394,3.467-2.718,4.175-3.724,4.122S278.149,344.1,278.321,343.093Z" transform="translate(-252.149 -317.472)" fill="#703c28"/>
        </g>
        <path id="Path_121" data-name="Path 121" d="M287.017,368.392c-.062-1.984.5-9.892,4.858-11.582s8.577-2.31,8.528,9.036-.413,25.642.293,29.945.809,10.095-2.325,11.663-12.522,4.068-12.522,4.068,1.293-4.937-4.217-7.864l8.213-5.158s-.658-7.9-1.318-15.955S287.1,371.081,287.017,368.392Z" transform="translate(-194.126 -305.092)" fill="#b2165b"/>
        <path id="Path_122" data-name="Path 122" d="M244.063,459.073s-3.672,8.616-3.539,11.056,1.359,5.432,4.1,6.013,8.333-.791,10.022-5.348c1.062-2.856-.357-8.1.534-11.514s5.743-11.624,1.352-15.207c0,0-.811,5.969-1.045,9.086s-1.912,9.191-2.258,10.535-1.775,2.185-5.126,1.919C243.089,465.215,243.654,461.917,244.063,459.073Z" transform="translate(-222.331 -244.581)" fill="#afa604"/>
      </g>
    </g>
    <path id="Path_123" data-name="Path 123" d="M385.471,328.2a4.1,4.1,0,0,1-1.848,3.2l-6.613,3.817c-1.015.587-1.848.106-1.848-1.067v-7.636a4.1,4.1,0,0,1,1.848-3.2l6.613-3.819c1.017-.587,1.848-.106,1.848,1.067Z" transform="translate(-39.188 75.354)" fill="#fff" opacity="0.2"/>
    <path id="Path_124" data-name="Path 124" d="M374.02,355.515a4.1,4.1,0,0,1-1.848,3.2l-6.613,3.817c-1.015.587-1.848.106-1.848-1.067v-7.636a4.1,4.1,0,0,1,1.848-3.2l6.613-3.819c1.017-.587,1.848-.106,1.848,1.069Z" transform="translate(-47.044 94.094)" fill="#fff" opacity="0.2"/>
    <path id="Path_125" data-name="Path 125" d="M195.7,321.743a4.1,4.1,0,0,1-1.848,3.2l-6.613,3.819c-1.015.585-1.848.106-1.848-1.067v-7.636a4.1,4.1,0,0,1,1.848-3.2l6.613-3.817c1.017-.587,1.848-.106,1.848,1.067Z" transform="translate(-169.387 70.924)" fill="#fff" opacity="0.2"/>
    <path id="Path_126" data-name="Path 126" d="M225.439,387.455a4.1,4.1,0,0,1-1.848,3.2l-6.613,3.817c-1.017.587-1.848.106-1.848-1.067v-7.636a4.1,4.1,0,0,1,1.848-3.2l6.613-3.817c1.017-.587,1.848-.106,1.848,1.067Z" transform="translate(-148.981 116.007)" fill="#fff" opacity="0.2"/>
    <path id="Path_127" data-name="Path 127" d="M309.138,262.421a4.1,4.1,0,0,1-1.848,3.2l-6.613,3.819c-1.015.585-1.848.106-1.848-1.067v-7.636a4.1,4.1,0,0,1,1.848-3.2l6.613-3.817c1.017-.587,1.848-.106,1.848,1.067Z" transform="translate(-91.558 30.225)" fill="#fff" opacity="0.2"/>
    <path id="Path_128" data-name="Path 128" d="M355.753,324.781l17.992-10.388c1.017-.587,1.848-.106,1.848,1.067v8.783a4.1,4.1,0,0,1-1.846,3.2l-3.231,1.865v4.763l-4.011-2.448-10.752,6.208c-1.015.587-1.848.106-1.848-1.067v-8.783A4.1,4.1,0,0,1,355.753,324.781Z" transform="translate(-53.772 71.852)" fill="#fff" opacity="0.2"/>
    <path id="Path_129" data-name="Path 129" d="M222.494,365.5l17.99-10.386c1.017-.587,1.85-.108,1.85,1.067v8.783a4.1,4.1,0,0,1-1.848,3.2l-3.23,1.865v4.761l-4.011-2.446-10.75,6.206c-1.017.588-1.848.108-1.848-1.066V368.7A4.1,4.1,0,0,1,222.494,365.5Z" transform="translate(-145.197 99.788)" fill="#fff" opacity="0.2"/>
    <path id="Path_130" data-name="Path 130" d="M396.15,294.01,378.158,304.4a4.1,4.1,0,0,0-1.848,3.2v8.783c0,1.175.833,1.654,1.848,1.067l3.23-1.865v4.761l4.01-7.076,10.752-6.206a4.1,4.1,0,0,0,1.846-3.2v-8.781C398,293.9,397.167,293.423,396.15,294.01Z" transform="translate(-38.4 57.868)" fill="#fff" opacity="0.2"/>
    <path id="Path_131" data-name="Path 131" d="M221.127,353.668l-17.992,10.388a4.1,4.1,0,0,0-1.848,3.2v8.783c0,1.173.833,1.652,1.848,1.067l3.23-1.867V380l4.009-7.076,10.752-6.206a4.1,4.1,0,0,0,1.848-3.2v-8.783C222.975,353.562,222.144,353.081,221.127,353.668Z" transform="translate(-158.479 98.798)" fill="#fff" opacity="0.2"/>
    <g id="Group_55" data-name="Group 55" transform="translate(65.272 393.301)">
      <path id="Path_132" data-name="Path 132" d="M220.589,328.287a6.6,6.6,0,0,1-2.989,5.18c-1.651.953-2.989.18-2.989-1.727a6.607,6.607,0,0,1,2.989-5.178C219.252,325.608,220.589,326.382,220.589,328.287Z" transform="translate(-214.61 -313.209)" fill="#fff"/>
      <path id="Path_133" data-name="Path 133" d="M227.238,324.45a6.6,6.6,0,0,1-2.989,5.178c-1.651.954-2.989.18-2.989-1.727a6.607,6.607,0,0,1,2.989-5.178C225.9,321.77,227.238,322.543,227.238,324.45Z" transform="translate(-210.048 -315.842)" fill="#fff"/>
      <path id="Path_134" data-name="Path 134" d="M233.889,320.611a6.61,6.61,0,0,1-2.991,5.18c-1.651.953-2.989.18-2.989-1.727a6.613,6.613,0,0,1,2.989-5.18C232.55,317.931,233.889,318.7,233.889,320.611Z" transform="translate(-205.487 -318.476)" fill="#fff"/>
    </g>
    <g id="Group_56" data-name="Group 56" transform="translate(292.396 339.282)">
      <path id="Path_135" data-name="Path 135" d="M355.3,296.249a6.613,6.613,0,0,1-2.989,5.18c-1.652.953-2.991.18-2.991-1.727a6.6,6.6,0,0,1,2.991-5.178C353.958,293.57,355.3,294.342,355.3,296.249Z" transform="translate(-349.316 -281.17)" fill="#fff"/>
      <path id="Path_136" data-name="Path 136" d="M361.945,292.412a6.61,6.61,0,0,1-2.989,5.178c-1.652.953-2.991.18-2.991-1.727a6.6,6.6,0,0,1,2.991-5.178C360.605,289.731,361.945,290.5,361.945,292.412Z" transform="translate(-344.754 -283.804)" fill="#fff"/>
      <path id="Path_137" data-name="Path 137" d="M368.594,288.573a6.607,6.607,0,0,1-2.991,5.178c-1.651.954-2.989.18-2.989-1.725a6.613,6.613,0,0,1,2.989-5.18C367.256,285.892,368.594,286.666,368.594,288.573Z" transform="translate(-340.193 -286.438)" fill="#fff"/>
    </g>
    <g id="Group_57" data-name="Group 57" transform="translate(257.459 290.804)">
      <path id="Path_138" data-name="Path 138" d="M332.782,264.554a4.627,4.627,0,0,1-2.094,3.625c-1.155.666-2.092.125-2.092-1.209a4.628,4.628,0,0,1,2.092-3.625C331.844,262.678,332.782,263.219,332.782,264.554Z" transform="translate(-328.595 -253.998)" fill="#fff"/>
      <path id="Path_139" data-name="Path 139" d="M337.435,261.867a4.627,4.627,0,0,1-2.094,3.625c-1.155.666-2.092.126-2.092-1.209a4.628,4.628,0,0,1,2.092-3.625C336.5,259.991,337.435,260.532,337.435,261.867Z" transform="translate(-325.402 -255.842)" fill="#fff"/>
      <path id="Path_140" data-name="Path 140" d="M342.089,259.179A4.628,4.628,0,0,1,340,262.805c-1.155.666-2.092.125-2.092-1.209A4.63,4.63,0,0,1,340,257.971C341.152,257.3,342.089,257.845,342.089,259.179Z" transform="translate(-322.209 -257.685)" fill="#fff"/>
    </g>
    <g id="Group_58" data-name="Group 58" transform="translate(69.533 321.816)">
      <path id="Path_141" data-name="Path 141" d="M221.324,282.946a4.628,4.628,0,0,1-2.094,3.627c-1.155.666-2.092.125-2.092-1.209a4.625,4.625,0,0,1,2.092-3.625C220.386,281.071,221.324,281.612,221.324,282.946Z" transform="translate(-217.137 -272.391)" fill="#fff"/>
      <path id="Path_142" data-name="Path 142" d="M225.978,280.26a4.622,4.622,0,0,1-2.094,3.623c-1.155.668-2.092.126-2.092-1.207a4.628,4.628,0,0,1,2.092-3.625C225.04,278.384,225.978,278.925,225.978,280.26Z" transform="translate(-213.944 -274.235)" fill="#fff"/>
      <path id="Path_143" data-name="Path 143" d="M230.632,277.572a4.622,4.622,0,0,1-2.094,3.625c-1.155.668-2.092.126-2.092-1.207a4.628,4.628,0,0,1,2.092-3.625C229.694,275.7,230.632,276.238,230.632,277.572Z" transform="translate(-210.751 -276.078)" fill="#fff"/>
    </g>
    <g id="Group_59" data-name="Group 59" transform="translate(161.98 319.21)">
      <path id="Path_144" data-name="Path 144" d="M296.327,291.788l-23.35-13.482a2.029,2.029,0,0,1-.74-2.763h0A2.029,2.029,0,0,1,275,274.8l23.35,13.482a2.029,2.029,0,0,1,.74,2.763h0A2.029,2.029,0,0,1,296.327,291.788Z" transform="translate(-271.967 -274.533)" fill="url(#linear-gradient-34)"/>
      <path id="Path_145" data-name="Path 145" d="M290.893,288.493h0a2.026,2.026,0,0,1-.74-2.762h0a2.026,2.026,0,0,1,2.762-.74h0a2.026,2.026,0,0,1,.74,2.762h0A2.026,2.026,0,0,1,290.893,288.493Z" transform="translate(-259.676 -267.544)" fill="url(#linear-gradient-35)"/>
    </g>
    <path id="Path_19-2" data-name="Path 19" d="M495.363,463.557c9.471,86.733-39.375,117.366-125.216,117.366S207.042,510.612,197.571,423.881s94.7-153.851,180.538-153.851S485.892,376.826,495.363,463.557Z" transform="translate(-162.441 31.588)" opacity="0.25" fill="url(#linear-gradient)"/>
    <path id="Path_20-2" data-name="Path 20" d="M484.316,426.461c8.951,81.982-52.029,148.44-136.2,148.44s-142.638-16.778-151.59-98.76,82.961-208.387,207.114-201.6C488.194,279.166,475.364,344.479,484.316,426.461Z" transform="translate(-163.161 34.504)" opacity="0.25" fill="url(#linear-gradient-2)"/>
    <g id="Group_39-2" data-name="Group 39" transform="translate(243.97 261.466)">
      <path id="Path_21-2" data-name="Path 21" d="M327.579,267.526l44.2-25.515c2.5-1.442,4.539-.261,4.539,2.622V266.2a10.069,10.069,0,0,1-4.539,7.864l-7.935,4.581v11.7l-9.85-6.013-26.409,15.249c-2.5,1.442-4.541.263-4.541-2.622V275.389A10.072,10.072,0,0,1,327.579,267.526Z" transform="translate(-319.916 -239.524)" fill="url(#linear-gradient-3)"/>
      <path id="Path_22-2" data-name="Path 22" d="M324.314,297.722V276.151a10.072,10.072,0,0,1,4.537-7.864l44.2-25.515a3.422,3.422,0,0,1,2.863-.47h0l-2.841-1.745a3.224,3.224,0,0,0-3.146.344l-44.2,25.515a10.072,10.072,0,0,0-4.539,7.864v21.573a3.172,3.172,0,0,0,1.349,2.94l3.08,1.841A3.2,3.2,0,0,1,324.314,297.722Z" transform="translate(-321.188 -240.285)" fill="url(#linear-gradient-4)"/>
    </g>
    <g id="Group_40-2" data-name="Group 40" transform="translate(50.743 362.747)">
      <path id="Path_23-2" data-name="Path 23" d="M214.008,331.977l51.3-29.621c2.9-1.673,5.269-.305,5.269,3.043l0,25.043a11.7,11.7,0,0,1-5.269,9.128l-9.211,5.318v13.578l-11.437-6.979-30.658,17.7c-2.9,1.673-5.271.305-5.271-3.043V341.1A11.685,11.685,0,0,1,214.008,331.977Z" transform="translate(-205.11 -299.471)" fill="url(#linear-gradient-5)"/>
      <path id="Path_24-2" data-name="Path 24" d="M210.213,367.031V341.988a11.685,11.685,0,0,1,5.271-9.127l51.3-29.621a3.971,3.971,0,0,1,3.323-.546h0l-3.3-2.023a3.736,3.736,0,0,0-3.654.4l-51.3,29.619a11.693,11.693,0,0,0-5.269,9.127v25.045a3.683,3.683,0,0,0,1.566,3.414l3.573,2.136A3.716,3.716,0,0,1,210.213,367.031Z" transform="translate(-206.586 -300.354)" fill="url(#linear-gradient-6)"/>
    </g>
    <g id="Group_41-2" data-name="Group 41" transform="translate(39.915 301.095)">
      <path id="Path_25-2" data-name="Path 25" d="M251.815,265.551,206.69,291.6a10.29,10.29,0,0,0-4.633,8.029v22.025c0,2.944,2.086,4.148,4.633,2.676l8.1-4.677V331.6l10.057-17.748,26.965-15.568a10.286,10.286,0,0,0,4.635-8.027V268.226C256.45,265.283,254.364,264.079,251.815,265.551Z" transform="translate(-198.865 -263.011)" fill="url(#linear-gradient-7)"/>
      <path id="Path_26-2" data-name="Path 26" d="M203.356,322.432V300.407a10.29,10.29,0,0,1,4.633-8.029l45.124-26.05a3.294,3.294,0,0,1,3.188-.357l0,0-3.1-1.863a3.247,3.247,0,0,0-3.286.31L204.8,290.468a10.284,10.284,0,0,0-4.635,8.029v22.025a3.189,3.189,0,0,0,1.462,3.048l3.055,1.833v0A3.272,3.272,0,0,1,203.356,322.432Z" transform="translate(-200.164 -263.789)" fill="url(#linear-gradient-8)"/>
      <path id="Path_27-2" data-name="Path 27" d="M210.908,297.383l-3.19,1.842v8.189l3.19,1.784Z" transform="translate(-194.981 -240.741)" fill="url(#linear-gradient-9)"/>
    </g>
    <g id="Group_42-2" data-name="Group 42" transform="translate(264.871 312.931)">
      <path id="Path_28-2" data-name="Path 28" d="M395.089,272.907l-53.732,31.02a12.245,12.245,0,0,0-5.52,9.56v26.228c0,3.505,2.484,4.94,5.52,3.187L351,337.333v14.22l11.974-21.135,32.111-18.538a12.244,12.244,0,0,0,5.52-9.558v-26.23C400.609,272.586,398.126,271.153,395.089,272.907Z" transform="translate(-332.038 -269.883)" fill="url(#linear-gradient-10)"/>
      <path id="Path_29-2" data-name="Path 29" d="M337.383,340.641V314.413a12.245,12.245,0,0,1,5.52-9.56l53.732-31.02a3.926,3.926,0,0,1,3.8-.427l0,0-3.686-2.217a3.864,3.864,0,0,0-3.913.369L339.1,302.578a12.248,12.248,0,0,0-5.518,9.56v26.227c0,1.823.669,3.086,1.738,3.632l3.639,2.182v0A3.9,3.9,0,0,1,337.383,340.641Z" transform="translate(-333.584 -270.809)" fill="url(#linear-gradient-11)"/>
      <path id="Path_30-2" data-name="Path 30" d="M346.378,310.813l-3.8,2.194v9.752l3.8,2.124Z" transform="translate(-327.413 -243.363)" fill="url(#linear-gradient-12)"/>
    </g>
    <g id="Group_54-2" data-name="Group 54" transform="translate(81.474 280.196)">
      <path id="Path_31-2" data-name="Path 31" d="M422.434,402.149c18.924,6.324-4.208,20.395-24.639,36.31s-65.35,41.1-65.35,41.1l-45.038-50.211s83.518-37.876,95.066-38.412S422.434,402.149,422.434,402.149Z" transform="translate(-181.868 -155.67)" fill-rule="evenodd" opacity="0.2" style="mix-blend-mode: multiply;isolation: isolate"/>
      <g id="Group_43-2" data-name="Group 43" transform="translate(185.28 235.266)">
        <path id="Path_32-2" data-name="Path 32" d="M335.588,406.945l-.878,5.871s-.406,3.89,4.4,4.328,6.555-2.789,7.975-5.1,4.93-7.056,8.717-7.727,10.889-6.771,9.332-10.573c-1.352-3.3-9.464-4.473-17.439.806v2.128s0,5.239-4.4,7.5A28,28,0,0,1,335.588,406.945Z" transform="translate(-334.701 -390.929)" fill="#001135" fill-rule="evenodd"/>
        <path id="Path_33-2" data-name="Path 33" d="M355.8,402.476c-3.787.671-7.3,5.416-8.717,7.727s-3.175,5.537-7.975,5.1c-3.389-.31-4.183-2.339-4.357-3.5l-.039.256a3.714,3.714,0,0,0,.049.887h0v0a4.039,4.039,0,0,0,.228.83l.578,2.111a6.876,6.876,0,0,0,8.526.288c2.681-1.873,4.9-6.424,4.9-6.424v-1.172c1.754-2.19,4.217-4.561,6.808-5.019,3.583-.639,10.133-6.134,9.506-9.943C364.758,397.306,359.053,401.9,355.8,402.476Z" transform="translate(-334.701 -389.087)" fill="#181818" fill-rule="evenodd"/>
      </g>
      <path id="Path_34-2" data-name="Path 34" d="M354.088,400.272s4.389,18.223-16.473,21.245L330.38,391.55l16.717-11.5S350.709,397.114,354.088,400.272Z" transform="translate(-152.385 -163.129)" fill="#2b434d"/>
      <g id="Group_44-2" data-name="Group 44" transform="translate(58.882 186.421)">
        <path id="Path_35-2" data-name="Path 35" d="M358.362,432.128l-98.627-56.943v4.926l98.627,56.943Z" transform="translate(-259.735 -352.885)" fill="url(#linear-gradient-13)"/>
        <path id="Path_36-2" data-name="Path 36" d="M356.853,400.658v-4.926l-38.623,22.3v4.926Z" transform="translate(-219.604 -338.789)" fill="url(#linear-gradient-13)"/>
        <path id="Path_37-2" data-name="Path 37" d="M396.985,418.9l-98.626-56.943-38.624,22.3L358.362,441.2Z" transform="translate(-259.735 -361.959)" fill="url(#linear-gradient-15)"/>
      </g>
      <g id="Group_45-2" data-name="Group 45" transform="translate(206.881 246.48)">
        <path id="Path_38-2" data-name="Path 38" d="M376.942,397.764c-5.011.693-9.047,3.78-14.878.959,0,0-3.4,4.847-12.812,6.537l-1.123,3.838a17.154,17.154,0,0,0-.432,7.233s2.387,4.114,8.194,2.445,7.112-3.748,14.271-3.956c6.3-.187,15.014-4.424,16.808-10.376S382.459,397,376.942,397.764Z" transform="translate(-347.512 -397.58)" fill="#001135" fill-rule="evenodd"/>
        <path id="Path_39-2" data-name="Path 39" d="M387.177,400.808a7.266,7.266,0,0,1-.282,1.421c-1.794,5.952-10.5,10.189-16.808,10.376-7.159.207-8.466,2.285-14.271,3.956s-8.194-2.445-8.194-2.445v1.029l.02,1.074a5.68,5.68,0,0,0,5.519,3.05c4.214-.067,10.964-3.392,10.964-3.392v-1.389a22.79,22.79,0,0,1,5.962-.855c6.3-.187,15.014-4.424,16.808-10.376A6.165,6.165,0,0,0,387.177,400.808Z" transform="translate(-347.437 -395.365)" fill="#001135" fill-rule="evenodd"/>
      </g>
      <path id="Path_40-2" data-name="Path 40" d="M364.493,370.6l2.674,5.07s-5.325,25.635,3.694,43.045c0,0-1.814,14.684-21.438,16.12,0,0-3.93-16.7-3.488-25.734S345,381.583,345,381.583Z" transform="translate(-142.357 -169.608)" fill="#2b434d"/>
      <path id="Path_41-2" data-name="Path 41" d="M384.2,373.975s-32.787,17.144-40.28,22.047-12.592,21.956-27.028,15.544c-19.193-8.518-17.631-18.046-14.52-28.66l16.471-7.323s21.172-4.4,35.7-10.3,22.076-7.638,25.841-3.064S384.2,373.975,384.2,373.975Z" transform="translate(-172.896 -177.138)" fill="#2b434d"/>
      <path id="Path_42-2" data-name="Path 42" d="M392.155,379.448s-32.787,17.146-40.28,22.047-13.811,13.15-29.51,11.384-15.149-13.886-12.04-24.5l16.473-7.323s21.172-4.4,35.706-10.293,22.072-7.638,25.837-3.064S392.155,379.448,392.155,379.448Z" transform="translate(-167.345 -173.383)" fill="#2b434d"/>
      <g id="Group_46-2" data-name="Group 46" transform="translate(132.536 100.238)">
        <path id="Path_43-2" data-name="Path 43" d="M326.954,357.817s.948-7.164,2.664-8.066,5.407.226,6.419-.653,2.2-4.672,2.89-5.674a22.143,22.143,0,0,0,2.738-5.841c.282-1.614-.273-2.558.594-3.875s1.62-7.677.939-10.791-5.837-10.643-16.2-10.1-15.584,8.769-15.885,14.659,2.214,13.091.322,16.856-3.686,6.56-7.038,7.72c0,0-5.166,5.685,8.262,8.982S326.954,357.817,326.954,357.817Z" transform="translate(-303.419 -309.51)" fill="#9c5222" fill-rule="evenodd"/>
        <path id="Path_44-2" data-name="Path 44" d="M327.294,310.933c-14.387-1.211-19.422,10.305-19.666,14.411a47.878,47.878,0,0,0,1.066,10.224,48.032,48.032,0,0,1,.578,6.62,12.175,12.175,0,0,0,4.9,2.954c3.9,1.194,8.508,1.074,9.408-.98s1.855-6.778,4.22-7.709S332.445,338,332.445,338l.732-.673s.929-4.077,2.268-5,2.484-2.441,2.371-3.637c-.091-.968-.162-4.023,2.408-4.847,0,0,1.062.224,1.885-2.6S339.236,311.938,327.294,310.933Z" transform="translate(-300.552 -310.844)" fill-rule="evenodd"/>
        <path id="Path_45-2" data-name="Path 45" d="M328.222,339.873c-1.843-1.529-4.654-4.36-4.966-7.57a24.417,24.417,0,0,1,.1-6.373,2.979,2.979,0,0,0-.713.175c-2.366.931-3.323,5.655-4.22,7.709a2.27,2.27,0,0,1-1.02,1.039c-.572,5.2-1.448,12.625-2.307,17.587,3.5-1.111,3.838-3.637,3.838-3.637s.948-7.164,2.664-8.066,5.407.226,6.419-.653A1.742,1.742,0,0,0,328.222,339.873Z" transform="translate(-295.404 -300.495)" fill="#9c5222" fill-rule="evenodd"/>
        <path id="Path_46-2" data-name="Path 46" d="M308.825,333.249v.049c.005.241.008.481,0,.713h0a12.175,12.175,0,0,0,4.9,2.954c3.9,1.194,8.508,1.074,9.408-.98s1.855-6.778,4.22-7.709S332,329.824,332,329.824l.732-.673s.929-4.077,2.268-5a6.838,6.838,0,0,0,1.489-1.393,70.986,70.986,0,0,1-15.222,6.685c-3.755.89-9.521-.749-13.018-2.052.187,1.482.384,2.937.5,4.306l0,.022C308.786,332.247,308.814,332.756,308.825,333.249Z" transform="translate(-300.106 -302.667)" fill-rule="evenodd"/>
        <path id="Path_47-2" data-name="Path 47" d="M322.51,328.492s.75-2.3-1.042-2.161-3.02,3.556-2.03,5.765,1.966,2.194,2.377.1S322.51,328.492,322.51,328.492Z" transform="translate(-292.67 -300.224)" fill="#9c5222" fill-rule="evenodd"/>
      </g>
      <path id="Path_48-2" data-name="Path 48" d="M315.075,333.557l-4.564-.305s-8.324-1.175-12.121,1.229-2.694,5.333-2.286,14.939,4.512,24.411,7.584,31.324,4.1,10.9,2.637,14.9-2.529,6.7-1.769,11.054c1.066,6.139,6.493,8.526,14.455,12.415s10.4,3.772,16.765,4.515c3.716.433,15.153,1.226,19.322-6.889s4.178-12.01,4.178-12.01a49.664,49.664,0,0,1-9.376-19.434c-2.6-11.514-.954-30.127-.954-30.127l-9.026-8.616c-1.288-1.226-7.291-4.611-7.291-4.611S313.234,341.633,315.075,333.557Z" transform="translate(-176.221 -195.43)" fill="#fbb03b"/>
      <path id="Path_49-2" data-name="Path 49" d="M316.257,381.986c.647-2.742,2.494-7.619,2.081-9.474s-3.893-5.131-.836-9.584a26.508,26.508,0,0,0,3.927-8.918l14.33.479a81.266,81.266,0,0,0,1.462,16.365,49.664,49.664,0,0,0,9.376,19.434s-.008,3.893-4.178,12.01-15.606,7.323-19.322,6.889a56,56,0,0,1-8.977-1.384C315.778,398.291,315.756,384.1,316.257,381.986Z" transform="translate(-163.542 -180.991)" fill="#fbb03b"/>
      <g id="Group_47-2" data-name="Group 47" transform="translate(159.514 132.349)">
        <path id="Path_50-2" data-name="Path 50" d="M336.507,351.232s1.688,5.7,5.235,8.22a4.728,4.728,0,0,1,.513,1.745,13.3,13.3,0,0,1-1.1,2.453l9.3,3.288.145-5.1L344.9,341.5Z" transform="translate(-307.696 -321.925)" fill="#703c28"/>
        <path id="Path_51-2" data-name="Path 51" d="M344.148,365.234a.959.959,0,0,1-1.448.555l-10.467-6.041a1.593,1.593,0,0,1-.685-1.789L340.5,330.6a.961.961,0,0,1,1.45-.555l10.467,6.043a1.59,1.59,0,0,1,.685,1.787Z" transform="translate(-311.144 -329.889)" fill="#e2e9ed"/>
        <path id="Path_52-2" data-name="Path 52" d="M343.541,365.336a.96.96,0,0,1-1.45.555l-10.465-6.043a1.587,1.587,0,0,1-.683-1.787l8.951-27.363a.961.961,0,0,1,1.45-.556l10.467,6.043a1.589,1.589,0,0,1,.685,1.789Z" transform="translate(-311.56 -329.82)" fill="#aeb5b9"/>
        <path id="Path_53-2" data-name="Path 53" d="M331.74,358.227a.394.394,0,0,1-.13-.336l8.865-27.093,10.219,5.9a.391.391,0,0,1,.13.337l-8.864,27.094Z" transform="translate(-311.059 -329.266)" fill="url(#linear-gradient-16)"/>
        <path id="Path_54-2" data-name="Path 54" d="M340.511,336.775c-.6.2-1.42,2.261-.452,4.264s2.843,5.618,2.713,6.458-2.576,3.746-2.677,5.911,2.16,5.911,2.16,5.911l6.2,6.2s.39-8.56.39-11-.177-7.152-1.153-9.282S343.03,335.935,340.511,336.775Z" transform="translate(-305.566 -325.212)" fill="#9c5222"/>
        <path id="Path_55-2" data-name="Path 55" d="M320.263,363.347c-2.256-7.774.582-18.6,1.872-19.634s2-3.165,7.363.388,10.076,10.555,12.145,15.256,7.813,12.258,7.813,12.258l4.009-11.3,9.491,2.2s.352,15.308-.631,20.344-3.44,14.08-9.767,12.853S321.742,368.44,320.263,363.347Z" transform="translate(-319.419 -321.492)" fill="#fbb03b"/>
        <path id="Path_56-2" data-name="Path 56" d="M345.811,373.21S346.955,361.1,347.2,354.3l-6-1.389-3.888,10.959,5.185,7.579Z" transform="translate(-307.148 -314.093)" fill="#fbb03b"/>
      </g>
      <path id="Path_57-2" data-name="Path 57" d="M350.775,469.117l-79.267-46.028-38.624,22.3,16.608,9.589c-17.053,16-32.479,34.249-20.334,39.078,7.451,2.961,18.717,8.783,35.44,1.646,6.35-2.71,18.193-8.405,30.44-14.428l17.115,10.143Z" transform="translate(-224.812 -133.599)" opacity="0.2" style="mix-blend-mode: multiply;isolation: isolate"/>
      <g id="Group_48-2" data-name="Group 48" transform="translate(39.784)">
        <path id="Path_58-2" data-name="Path 58" d="M248.408,262.518c0-6.356,4.5-8.956,10.007-5.778l88.247,50.95c5.5,3.177,10,10.975,10,17.326l0,260.425c0,6.353-4.5,8.953-10.005,5.775L258.415,540.27c-5.508-3.177-10.007-10.976-10.007-17.329Z" transform="translate(-248.408 -248.657)" fill="#444343"/>
        <path id="Path_59-2" data-name="Path 59" d="M350.008,588.773a6.451,6.451,0,0,1-3.1-1L258.667,536.83c-4.692-2.706-8.658-9.57-8.658-14.989l0-260.422c0-1.334.28-4.433,2.858-4.433a6.454,6.454,0,0,1,3.1.995l88.249,50.948c4.691,2.71,8.655,9.572,8.655,14.987l-.007,260.425C352.861,585.674,352.585,588.773,350.008,588.773Z" transform="translate(-247.31 -247.557)" fill="url(#linear-gradient-17)"/>
        <path id="Path_60-2" data-name="Path 60" d="M355.39,588.178l0-260.425c0-6.351-4.5-14.15-10-17.326l-88.247-50.95c-2.661-1.536-5.077-1.71-6.876-.776v-.012l11.87-6.824c1.775-.823,4.122-.6,6.685.884L357.073,303.7c5.5,3.178,10,10.976,10,17.329l0,260.425c0,3.222-1.157,5.481-3.016,6.507L353,594.263C354.486,593.1,355.39,591.019,355.39,588.178Z" transform="translate(-247.134 -251.394)" fill="url(#linear-gradient-18)"/>
      </g>
      <g id="heart-2" data-name="heart" transform="translate(44.263 60.282)">
        <ellipse id="Oval-2" data-name="Oval" cx="39.504" cy="96.429" rx="39.504" ry="96.429" transform="matrix(0.993, -0.117, 0.117, 0.993, 0, 9.239)" fill="url(#linear-gradient-19)"/>
        <g id="Group_49-2" data-name="Group 49" transform="translate(21.005 33.619)">
          <path id="Path_2-2" data-name="Path 2" d="M287.737,328.194c1.109-1.035,2.158-2.172,3.269-3.013,2.433-2.111,5.294-2.05,8.135.172,4.576,3.807,7.678,11.563,9.631,21.9,2.347,11.877,1.566,24.283-1.957,31.127-1.9,3.436-4.31,5.259-6.958,5.249-.964.037-2-.629-2.967-.661-3.239-.1-5.768,2.322-6.8,9.351a52.578,52.578,0,0,0,1.03,18.076,65.022,65.022,0,0,0,4.188,13.183c.238.536.465,1.1.7,1.647-.035.172-.073.346-.108.518-1.855-2.411-3.762-4.581-5.559-7.289-7.424-11.162-13.505-25.755-18.685-42.486a197.268,197.268,0,0,1-6.7-28.623,102.539,102.539,0,0,1-1.383-19.842c.555-11.953,3.615-18.329,8.486-20.086,5.191-1.868,9.653,4.294,13.612,14.563.383.99.738,2.038,1.087,3.084S287.418,327.186,287.737,328.194Z" transform="translate(-263.523 -307.086)" fill="#fff"/>
          <path id="Path_3-2" data-name="Path 3" d="M284.283,407.808c-2.263-8.572-3.561-16.933-1.806-24.645,1.457-6.4,4.256-8.032,7.522-7.24a6.35,6.35,0,0,0,5.008-.5c8.29-4.964,8.7-25.571,4.342-41.359q-1.227-4.084-2.6-7.951c1.995-.233,4.109.894,6.107,3.254,5.379,6.448,9.2,19.4,9.553,32.361A57.363,57.363,0,0,1,309.86,380.2a47.332,47.332,0,0,1-9.783,17.955c-4.475,5.065-9.425,8.255-14.679,9.457C285.063,407.687,284.718,407.73,284.283,407.808Z" transform="translate(-251.078 -294.054)" fill="#fff"/>
        </g>
      </g>
      <path id="Path_61-2" data-name="Path 61" d="M353.946,425.686l-71.538-22.248-34,1.845v16.082c0,6.353,4.5,14.153,10.007,17.329L334.586,482.6Z" transform="translate(-208.624 -147.081)" opacity="0.5" style="mix-blend-mode: multiply;isolation: isolate"/>
      <g id="Group_50-2" data-name="Group 50" transform="translate(8.071 216.735)">
        <path id="Path_62-2" data-name="Path 62" d="M328.227,450.107,229.6,393.164v4.926l98.627,56.943Z" transform="translate(-229.599 -370.865)" fill="url(#linear-gradient-13)"/>
        <path id="Path_63-2" data-name="Path 63" d="M326.717,418.637v-4.926l-38.623,22.3v4.926Z" transform="translate(-189.467 -356.768)" fill="url(#linear-gradient-13)"/>
        <path id="Path_64-2" data-name="Path 64" d="M366.849,436.881l-98.626-56.943-38.624,22.3,98.627,56.943Z" transform="translate(-229.599 -379.938)" fill="url(#linear-gradient-15)"/>
      </g>
      <path id="Path_65-2" data-name="Path 65" d="M298.426,362.459s.064,3.9-2.382,4.443a3.64,3.64,0,0,1-3.746-1.421s-.651,4.915-7.641,4.018a6.8,6.8,0,0,1-4.876-2.517s-4.281,2.3-8.268-1.968-2.431-6.319-2.431-6.319a6.717,6.717,0,0,1-3.6-5.434,11.954,11.954,0,0,1,1.981-6.658s-3.074-6.06-1.1-9.752a15.421,15.421,0,0,1,3.809-5.016,5.73,5.73,0,0,1,4.057-5.448c4.188-1.366,8.781,1.3,8.781,1.3s4.873-4.015,11.708-.476,6.65,6.645,6.65,6.645,6.667,2.261,7.016,5.832a12.024,12.024,0,0,1-1.6,6.707s2.848.956,1.63,3.283a4.949,4.949,0,0,1-3.053,2.7s3.156,2.344,1.507,4.192a3.489,3.489,0,0,1-3.95.781s.14,4.348-.88,4.991S298.426,362.459,298.426,362.459Z" transform="translate(-196.912 -200.377)" opacity="0.2" style="mix-blend-mode: multiply;isolation: isolate"/>
      <path id="Path_66-2" data-name="Path 66" d="M274.145,328.1c.58,0,15.595-8.272,22.361,9.361,4.008,10.447-1.509,19.381,1.673,24.613s12,7.523,12.942,19.331,2.123,39.742-2.473,45.871-11,10.255-10.981,11.2-2.458,11.585-2.458,11.585l-18.731-9.778Z" transform="translate(-190.967 -200.098)" opacity="0.2" style="mix-blend-mode: multiply;isolation: isolate"/>
      <path id="Path_67-2" data-name="Path 67" d="M276.485,393.67,253.4,416.643l27.958,16.141a115.474,115.474,0,0,0,28.08-28.387h0l-20.231-11.681Z" transform="translate(-205.198 -154.437)" opacity="0.2" style="mix-blend-mode: multiply;isolation: isolate"/>
      <g id="Group_53-2" data-name="Group 53" transform="translate(8.296 125.378)">
        <path id="Path_68-2" data-name="Path 68" d="M241.987,444.172s-3.212,10.02-4.237,13.345-4.35,7.69-4.35,7.69,1.435,5.412,4.493,5.316,10.266-10.042,11.293-11.206,2.88-14.134,2.88-14.134Z" transform="translate(-227.217 -244.513)" fill="#703c28"/>
        <path id="Path_69-2" data-name="Path 69" d="M236.142,460.746a5.69,5.69,0,0,0,6.227,3.264c4.5-.809,7.291-6.535,9.01-10.936s5.016-4.348,4.819-4.21-5.648,18.614-8.181,20.89-14.928,6-17.6,3.553S233.6,463.455,236.142,460.746Z" transform="translate(-229.733 -241.322)" fill="#afa604"/>
        <path id="Path_70-2" data-name="Path 70" d="M245.1,447.288s-1.023,8.923-2.337,12.184,1.469,11.287,3.929,11.762,6.281-5.139,6.453-6.646,1.018-8.253,1.733-10.275-.342-10.821-.342-10.821Z" transform="translate(-221.027 -244.98)" fill="#703c28"/>
        <path id="Path_71-2" data-name="Path 71" d="M297.344,390.572s-13.037,4.78-24.532,1.46-13.976-8.72-13.976-8.72l-2.31,5.468s-2.563,21.917,7.828,22.789,35.257-8.908,35.257-8.908S299.392,395.732,297.344,390.572Z" transform="translate(-211.543 -286.267)" fill="#4a4868"/>
        <path id="Path_72-2" data-name="Path 72" d="M305.464,393.933c-5.163-.779-21.206,3.753-30.467,8.756s-30.665,24.177-32.368,27.227-1.187,8.43-.5,13.89-1.3,21.28-2.394,27.309-1.7,8.53-1.7,8.53,7.188,2.512,12.042-1.066,4.3-26.426,4.3-26.426l7.7-17.542s27.265-11.4,37.55-16.517,12.246-16.63,12.485-22.231C312.178,394.457,305.464,393.933,305.464,393.933Z" transform="translate(-224.036 -279.04)" fill="#5b567f"/>
        <path id="Path_73-2" data-name="Path 73" d="M299.633,417.9c10.285-5.121,12.246-16.63,12.485-22.231.032-.737-1.8-1.231-3.548-1.536.019,5.072-.9,11.969-5.5,15.552-6.759,5.264-28.2,13.126-33.883,15.161,1.28-7.26,3.5-14.765,4.962-16.788a13.125,13.125,0,0,0,2.094-6.21c-.425.214-.841.428-1.243.646-9.262,5-30.665,24.177-32.368,27.227s-1.187,8.43-.5,13.89-1.3,21.28-2.394,27.309-1.7,8.53-1.7,8.53,7.188,2.512,12.042-1.066,4.3-26.426,4.3-26.426l7.7-17.542S289.348,423.018,299.633,417.9Z" transform="translate(-224.036 -278.844)" fill="#4a4868"/>
        <path id="Path_74-2" data-name="Path 74" d="M266.119,386.555a36.568,36.568,0,0,0-14.055,13.2c-5.869,9.434-7.235,14.959-7.576,20.45s-2.645,21.921-2.156,29.27,1.91,39.417,1.91,39.417,10.545,1.828,11.846-5.75c0,0-.147-17.569,1.523-24.387s3.48-11.843,3.8-15.192-.172-21.663-.172-21.663,10.032-10.422,11.765-12.533,2.784-8.419.524-12.838C271.863,393.271,266.119,386.555,266.119,386.555Z" transform="translate(-221.136 -284.042)" fill="#5b567f"/>
        <path id="Path_75-2" data-name="Path 75" d="M255.473,371.545l-1.239.034-3.05,3.219,3.344,6.078,6.835-.708a3.48,3.48,0,0,0,.234-4.654C259.759,372.7,255.473,371.545,255.473,371.545Z" transform="translate(-215.016 -294.34)" fill="#703c28"/>
        <path id="Path_76-2" data-name="Path 76" d="M277.8,346.336s-5.736,15.5,6.537,19.422,19.811-16.979,19.811-16.979,10.661,10.644,12.044,15.971-9.518,20.7-9.518,20.7S297.1,399.6,297.1,404.293s2.974,17.3,2.974,17.3-2.244,5.9-21.354,4.229-22.634-13.229-22.634-13.229,3.158-4.866,6.22-8.894,4.537-15.008,4.537-15.008-9.25-4.414-5.082-11.835,7.788-13,9.1-19.574a39.005,39.005,0,0,1,4.669-11.858Z" transform="translate(-211.655 -312.262)" fill="#b2165b"/>
        <path id="Path_77-2" data-name="Path 77" d="M302.674,374.561a99.865,99.865,0,0,0,7.344-12.29,7.875,7.875,0,0,0-4.089-.964c-9.847.379-7.019,6.616-7.918,12.9s-6.861,11.624-13.36,10.379-12.583-6.5-12.583-6.5a24.693,24.693,0,0,1-9.228-.287s-.307,2.278-.929,5.137c9.773,2.75,18.479,10.968,19.488,20.041a43.287,43.287,0,0,1-.491,12.249c13.421.039,15.163-4.525,15.163-4.525s-2.979-12.6-2.974-17.3S302.674,374.561,302.674,374.561Z" transform="translate(-207.656 -301.368)" fill="#931551"/>
        <path id="Path_78-2" data-name="Path 78" d="M268.855,352.822c-.067.207-4.674,12.664,2.753,17.854s21.406-5.394,22.45-7.208,2.522-10.6,2.522-10.6-9.858-6.984-10.639-12.167S268.855,352.822,268.855,352.822Z" transform="translate(-203.903 -316.165)" fill="#703c28"/>
        <path id="Path_79-2" data-name="Path 79" d="M278.663,346.9l-1.017-1.48s-6.7.091-8.764,4.483-4.672,17.449-6.409,21.911-5.522,11.194-6.208,12.767a3.887,3.887,0,0,0-.411,2.462l-2.861,2.457s9.312,2.807,7.129,8.589c0,0,5.721-4.32,7.149-10.986S278.663,346.9,278.663,346.9Z" transform="translate(-213.775 -312.262)" fill="#b2165b"/>
        <path id="Path_80-2" data-name="Path 80" d="M270.349,351.132c-.629.25.324,4.234-1.388,7.307s-8.951,19.381-10.693,21.067a11.344,11.344,0,0,1-3.451,2.042,3.84,3.84,0,0,0-.148,1.3c1.875.836,4.569,2.465,4.1,4.8-.126.629-.29,1.3-.474,1.978a4.512,4.512,0,0,1,.68,4.544s5.721-4.32,7.149-10.986c.83-3.871,4.534-16.793,7.5-26.955C272.26,353.717,270.692,351,270.349,351.132Z" transform="translate(-212.631 -308.348)" fill="#931551"/>
        <path id="Path_81-2" data-name="Path 81" d="M249.218,375.475s-.285-2.153.231-2.947a13.756,13.756,0,0,1,3.667-3.035c.432-.013,1.3.219.948,1.268a10.486,10.486,0,0,1-1.163,2.2s1.565.924,1.818,1.7a35.512,35.512,0,0,0,1.932,4.719c.568.921,1.33,3.124.55,3.731s-8.046-3.529-8.624-4.7S249.218,375.475,249.218,375.475Z" transform="translate(-216.911 -295.748)" fill="#703c28"/>
        <path id="Path_82-2" data-name="Path 82" d="M264.689,382.561l-11.077-10.317a5.7,5.7,0,0,0-2.1-1.14l-5.429-1.376c-.344-.088-.545-.062-.585.047l-.538.782.061.042c-.115.083-.042.273.243.541l11.079,10.317a5.7,5.7,0,0,0,2.092,1.14l5.431,1.376c.352.088.55.057.582-.061l0,0,.518-.845C265.032,382.974,264.941,382.8,264.689,382.561Z" transform="translate(-219.283 -295.622)" fill="#d4dbdf"/>
        <path id="Path_83-2" data-name="Path 83" d="M264.162,383.08c.494.462.364.7-.293.538l-5.431-1.376a5.7,5.7,0,0,1-2.092-1.14l-11.079-10.317c-.494-.462-.364-.7.293-.538l5.429,1.376a5.671,5.671,0,0,1,2.094,1.14Z" transform="translate(-219.282 -295.266)" fill="#aeb5b9"/>
        <path id="Path_84-2" data-name="Path 84" d="M281.869,385.948l.57-1.588a40.941,40.941,0,0,0-3.532-2.286c-.737-.309-2.318-.4-5.362-.079s-4.439,1.49-3.284,1.868a29.526,29.526,0,0,0,4.962.592c.833.056,1.652.322,1.666.757s.363,1.63,1.008,1.693A25.987,25.987,0,0,0,281.869,385.948Z" transform="translate(-202.205 -287.31)" fill="#703c28"/>
        <g id="Group_51-2" data-name="Group 51" transform="translate(63.974 84.797)">
          <path id="Path_85-2" data-name="Path 85" d="M280.27,378.533a11.162,11.162,0,0,0-10.1-.25,3.546,3.546,0,0,0-2.163,2.863l1.9,15.568a2.416,2.416,0,0,0,1.374,2.02,7.6,7.6,0,0,0,6.869.169,2.41,2.41,0,0,0,1.472-1.947L282.29,381.5A3.553,3.553,0,0,0,280.27,378.533Z" transform="translate(-267.445 -375.26)" fill="#f5f0ee"/>
          <path id="Path_86-2" data-name="Path 86" d="M277.314,390.652a7.6,7.6,0,0,1-6.869-.169,3,3,0,0,1-1.214-1.261,2.606,2.606,0,0,0,1.3,1.587,7.381,7.381,0,0,0,6.68.165,2.6,2.6,0,0,0,1.376-1.519A2.96,2.96,0,0,1,277.314,390.652Z" transform="translate(-266.608 -367.01)" fill="#e1ceba"/>
          <path id="Path_87-2" data-name="Path 87" d="M272.182,377.389a8.444,8.444,0,0,0-2.008.762,3.546,3.546,0,0,0-2.163,2.863l1.9,15.568a2.416,2.416,0,0,0,1.374,2.02,6.754,6.754,0,0,0,2.858.873Z" transform="translate(-267.445 -375.128)" opacity="0.44" fill="url(#linear-gradient-23)" style="mix-blend-mode: multiply;isolation: isolate"/>
          <path id="Path_88-2" data-name="Path 88" d="M275.354,377.479a8.389,8.389,0,0,1,1.969.86,3.553,3.553,0,0,1,2.02,2.967l-2.666,15.455a2.418,2.418,0,0,1-1.474,1.947,6.724,6.724,0,0,1-2.9.732Z" transform="translate(-264.499 -375.066)" opacity="0.68" fill="url(#linear-gradient-24)" style="mix-blend-mode: multiply;isolation: isolate"/>
          <path id="Path_89-2" data-name="Path 89" d="M280.37,379.426a11.777,11.777,0,0,0-10.653-.265,5.061,5.061,0,0,0-1.706,1.421v0l.474,3.895a5.832,5.832,0,0,0,1.081.833,11.765,11.765,0,0,0,10.651.263,5.431,5.431,0,0,0,1.467-1.123l.54-3.131A4.681,4.681,0,0,0,280.37,379.426Z" transform="translate(-267.445 -374.698)" opacity="0.1" style="mix-blend-mode: multiply;isolation: isolate"/>
          <path id="Path_90-2" data-name="Path 90" d="M275.316,377.754a10.9,10.9,0,0,0-5.357,1.141,3.247,3.247,0,0,0-.152,6.151,11.765,11.765,0,0,0,10.651.263,3.247,3.247,0,0,0,.152-6.149A10.909,10.909,0,0,0,275.316,377.754Z" transform="translate(-267.676 -374.88)" fill="url(#linear-gradient-25)"/>
          <path id="Path_91-2" data-name="Path 91" d="M275.323,377.454a10.881,10.881,0,0,0-5.355,1.141,3.246,3.246,0,0,0-.153,6.149,11.77,11.77,0,0,0,10.649.265,3.246,3.246,0,0,0,.153-6.149A10.886,10.886,0,0,0,275.323,377.454Z" transform="translate(-267.671 -375.086)" fill="#8c531e"/>
          <path id="Path_92-2" data-name="Path 92" d="M275.328,377.289a10.883,10.883,0,0,0-5.357,1.141,3.246,3.246,0,0,0-.153,6.149,11.772,11.772,0,0,0,10.651.265,3.246,3.246,0,0,0,.153-6.149A10.873,10.873,0,0,0,275.328,377.289Z" transform="translate(-267.667 -375.199)" fill="url(#linear-gradient-26)"/>
          <path id="Path_93-2" data-name="Path 93" d="M275.333,377.057a10.872,10.872,0,0,0-5.357,1.141,3.246,3.246,0,0,0-.152,6.149,11.769,11.769,0,0,0,10.649.265,3.248,3.248,0,0,0,.153-6.151A10.885,10.885,0,0,0,275.333,377.057Z" transform="translate(-267.664 -375.359)" fill="url(#linear-gradient-27)"/>
          <path id="Path_94-2" data-name="Path 94" d="M282.011,381.494l-.282-1.762a3.532,3.532,0,0,0-1.872-2.431,10.451,10.451,0,0,0-9.457-.236,3.553,3.553,0,0,0-1.99,2.332l-.369,1.75a2.652,2.652,0,0,0-.032.327,3.49,3.49,0,0,0,1.983,2.91,10.951,10.951,0,0,0,9.909.246,3.485,3.485,0,0,0,2.124-2.809A2.345,2.345,0,0,0,282.011,381.494Z" transform="translate(-267.446 -376.048)" fill="url(#linear-gradient-28)"/>
          <path id="Path_95-2" data-name="Path 95" d="M275.009,376.051a9.671,9.671,0,0,0-4.756,1.013,2.883,2.883,0,0,0-.135,5.461,10.465,10.465,0,0,0,9.457.233,2.882,2.882,0,0,0,.135-5.458A9.659,9.659,0,0,0,275.009,376.051Z" transform="translate(-267.298 -376.048)" fill="url(#linear-gradient-29)"/>
          <path id="Path_96-2" data-name="Path 96" d="M274.983,376.061a9.572,9.572,0,0,0-4.711,1,2.856,2.856,0,0,0-.135,5.409,10.361,10.361,0,0,0,9.368.233,2.855,2.855,0,0,0,.133-5.409A9.571,9.571,0,0,0,274.983,376.061Z" transform="translate(-267.272 -376.041)" fill="url(#linear-gradient-30)"/>
          <path id="Path_97-2" data-name="Path 97" d="M279.444,379.68c0,.051,0,.1-.01.152a2.657,2.657,0,0,0-1.453-1.99,8.068,8.068,0,0,0-7.291-.18,2.652,2.652,0,0,0-1.551,1.915,1.176,1.176,0,0,1,0-.153,2.558,2.558,0,0,1,1.561-2.067,8.064,8.064,0,0,1,7.289.18A2.558,2.558,0,0,1,279.444,379.68Z" transform="translate(-266.674 -375.687)" fill="url(#linear-gradient-31)"/>
          <path id="Path_98-2" data-name="Path 98" d="M279.432,379.708a2.655,2.655,0,0,1-1.551,1.915,8.056,8.056,0,0,1-7.289-.182,2.019,2.019,0,0,1,.1-3.9,8.068,8.068,0,0,1,7.291.18A2.657,2.657,0,0,1,279.432,379.708Z" transform="translate(-266.673 -375.563)" fill="#cc9b6e"/>
          <path id="Path_99-2" data-name="Path 99" d="M273.915,380.721c-.044.005-.086.008-.128.012l-.062-.278a9,9,0,0,1-1.067.039,8.562,8.562,0,0,1-1.062-.093l-.076.277-.128-.019.118-.516a9.494,9.494,0,0,0,2.315.057Z" transform="translate(-265.127 -373.238)" fill="url(#linear-gradient-32)"/>
          <path id="Path_100-2" data-name="Path 100" d="M273.735,380.628a11.1,11.1,0,0,1-1.136.03c-.378-.01-.757-.039-1.131-.086l.076-.277a8.562,8.562,0,0,0,1.062.093,9,9,0,0,0,1.067-.039Z" transform="translate(-265.074 -373.133)" fill="#5a2100"/>
        </g>
        <path id="Path_101-2" data-name="Path 101" d="M291.333,384.855s-4.414,1.673-4.753,1.445-2.686-3.02-2.686-3.02a19.238,19.238,0,0,1-4.861,1.492c-1.622.051-7.791-.28-8.746-.25s-1.5.164-1.681.8.216,1.1,2.851,1.472,8.5,1.067,8.731,1.1.447.383.15.543a51.594,51.594,0,0,1-6.159.2c-.927-.066-4.713-.7-5.018-.826s-1.2-.4-1.523.258.433,1.706.433,1.706a1.085,1.085,0,0,0-.575,1c.079.659,1.6,1.517,1.6,1.517s-1.03.334-.727.968,2.922,1.553,4.068,1.9,6.39.668,8.451.035,7.919-1.8,9.233-2.087a49.126,49.126,0,0,1,5.427-.386l3.242-5.1Z" transform="translate(-203.828 -286.289)" fill="#703c28"/>
        <path id="Path_102-2" data-name="Path 102" d="M280.888,389.511c.3-.644.108-.765-.143-.927a18.554,18.554,0,0,0-3.431.3,20.406,20.406,0,0,1-4.687-.55c-1.066-.194-4.554-1.2-4.554-1.2a1.085,1.085,0,0,0-.575,1c.079.659,1.6,1.517,1.6,1.517s-1.03.334-.727.968,2.922,1.553,4.068,1.9a24.819,24.819,0,0,0,8.339.064c.044-.487-.416-1.185-.357-1.678A3.18,3.18,0,0,1,280.888,389.511Z" transform="translate(-203.828 -283.646)" fill="#703c28"/>
        <path id="Path_103-2" data-name="Path 103" d="M252.319,372.8a2.449,2.449,0,0,0-2.172-.1c-.833.357-2.949,2.03-2.821,2.988s.364,1.544,2.022,1.608a1.713,1.713,0,0,0,.337,1.728,3.9,3.9,0,0,0,1.757,1.088,13.671,13.671,0,0,0,1.718.939,6.715,6.715,0,0,1,1.539,1.029,8.807,8.807,0,0,0,1.8.29c.91.039,1.907-1.5,1.912-2.362s-1.131-1.239-1.131-1.239l-.976.594s-1.236.718-.555-.263,2.057-2.517,1.914-3.357a1.234,1.234,0,0,0-1.17-.939c-.066.017.179-1.082-.263-1.467s-1.293-.042-1.293-.042-3.962,3.057-4.171,3.212-.609-.344-.368-.617S253.713,373.913,252.319,372.8Z" transform="translate(-217.666 -293.686)" fill="#7a442a"/>
        <path id="Path_104-2" data-name="Path 104" d="M295.92,362.459s.064,3.9-2.382,4.443a3.64,3.64,0,0,1-3.746-1.421s-.651,4.915-7.641,4.018a6.8,6.8,0,0,1-4.876-2.517s-4.281,2.3-8.268-1.968-2.431-6.319-2.431-6.319a6.717,6.717,0,0,1-3.6-5.434,11.969,11.969,0,0,1,1.981-6.658s-3.074-6.06-1.1-9.752a15.421,15.421,0,0,1,3.809-5.016,5.73,5.73,0,0,1,4.057-5.448c4.188-1.366,8.783,1.3,8.783,1.3s4.871-4.015,11.706-.476,6.65,6.645,6.65,6.645,6.667,2.261,7.016,5.832a12.024,12.024,0,0,1-1.6,6.707s2.848.956,1.63,3.283a4.949,4.949,0,0,1-3.053,2.7s3.156,2.344,1.509,4.192a3.492,3.492,0,0,1-3.952.781s.142,4.348-.88,4.991S295.92,362.459,295.92,362.459Z" transform="translate(-206.927 -325.755)"/>
        <g id="Group_52-2" data-name="Group 52" transform="translate(55.61 1.269)">
          <path id="Path_105-2" data-name="Path 105" d="M269.244,338.581l-6.49,3.814c-.644,10.071,6.83,16.694,6.83,16.694s2.539.771,6.353-1.442C275.937,357.647,269.141,342.69,269.244,338.581Z" transform="translate(-262.715 -318.224)" fill="#422549"/>
          <path id="Path_106-2" data-name="Path 106" d="M266.179,351.25a8.6,8.6,0,0,0,1.543,5.743s-.6,2.377-.145,2.782a1.055,1.055,0,0,0,.949.258s2.441,4.246,3.912,5.195,5,.681,8.773-1.85A30.818,30.818,0,0,0,291.8,350.2c2.057-5.411,3.627-19.558-8.761-21.867s-16.881,9.81-17.78,12.067-.683,8.223-.194,8.757A3.981,3.981,0,0,1,266.179,351.25Z" transform="translate(-261.393 -325.451)" fill="#7a442a"/>
          <path id="Path_107-2" data-name="Path 107" d="M267.529,343.063a14.294,14.294,0,0,0-2.224-1.941,2.905,2.905,0,0,1,.418,1.158,8.6,8.6,0,0,0,1.543,5.743,11.914,11.914,0,0,0,.627-2.561A3.15,3.15,0,0,0,267.529,343.063Z" transform="translate(-260.938 -316.481)" fill="#703c28"/>
          <path id="Path_108-2" data-name="Path 108" d="M270.857,352.213a3.752,3.752,0,0,0,1.829.5c-1.956-1.413-3.659-5.524-3.876-5.566-.236-.046-1.865-.125-1.865-.125S269.386,351.264,270.857,352.213Z" transform="translate(-259.812 -312.436)" fill="#703c28"/>
          <path id="Path_109-2" data-name="Path 109" d="M266.179,347.416s-.01.1-.02.263a8.243,8.243,0,0,1,3.2-1.138c3.964-.7,8.671-.912,10.039-2.367,1.3-1.384-11.553-9.71-12.836-10.536a31.668,31.668,0,0,0-1.3,2.934c-.9,2.254-.683,8.223-.194,8.757A3.981,3.981,0,0,1,266.179,347.416Z" transform="translate(-261.393 -321.616)" fill="#703c28"/>
          <path id="Path_110-2" data-name="Path 110" d="M273.553,365.158a15.187,15.187,0,0,0,3.531-1.781A30.817,30.817,0,0,0,287.672,350.2c2.057-5.411,3.627-19.558-8.761-21.867a14.036,14.036,0,0,0-8.255.757l2.7,18.226a18.178,18.178,0,0,0,3.32,3.072c1.868,1.29,3.7,3.888,2.782,6.614C278.71,359.21,275.016,362.949,273.553,365.158Z" transform="translate(-257.266 -325.45)" fill="#7a442a"/>
          <path id="Path_111-2" data-name="Path 111" d="M301.256,363.032c-3.969-8.828-3.681-14.5-3.681-14.5l.423-.452s1.963-11.1-4.745-16.6c0,0-5.4-7.257-15.648-4.235-6.97,2.052-12.275,8.521-14.4,16.5-.587,2.2-.293,4.512-.45,6.931a19.93,19.93,0,0,0,1.853,9.562c-1.2-4.151-2.028-10.273,2.73-11.41,4.4-1.054,9.159,1.519,13.379.234,0,0,1.614,1.386,2.947,2.49,1.742,1.445,2.811,2.88,5.856-.209l2.915-.268s-1.9,4.9.7,8.668S301.256,363.032,301.256,363.032Z" transform="translate(-262.714 -326.507)"/>
          <path id="Path_112-2" data-name="Path 112" d="M287.707,335.706a27.551,27.551,0,0,0,5.547-4.227s-5.4-7.255-15.648-4.235c-6.97,2.052-12.275,8.521-14.4,16.5-.587,2.2-.293,4.512-.45,6.931a19.93,19.93,0,0,0,1.853,9.562c-1.2-4.151-2.028-10.273,2.73-11.41,4.4-1.054,9.159,1.519,13.379.234C280.715,349.064,282.979,338.616,287.707,335.706Z" transform="translate(-262.714 -326.507)" opacity="0.2" fill="url(#linear-gradient-33)" style="mix-blend-mode: multiply;isolation: isolate"/>
          <path id="Path_113-2" data-name="Path 113" d="M282.906,344.338c-1.044-5.109-6.8-7.665-6.8-7.665a7.075,7.075,0,0,0-1.023-.044,41.52,41.52,0,0,0-1.688,5.493s1.614,1.386,2.947,2.49c1.742,1.445,2.811,2.88,5.856-.209l.712-.066Z" transform="translate(-255.39 -319.565)" fill="#422549"/>
          <path id="Path_114-2" data-name="Path 114" d="M273.5,335.266c-7.547.239-10.565,6.93-10.565,6.93a11.736,11.736,0,0,1,10.293-5.829c7.08.212,8.108,3.672,8.108,3.672l.047.035c.179-.577.391-1.207.631-1.867C281.239,337.123,279.047,335.091,273.5,335.266Z" transform="translate(-262.565 -320.506)" fill="#422549"/>
          <path id="Path_115-2" data-name="Path 115" d="M266.118,338.361c8.741-.575,11.666,1.089,12.576,1.939.089-.341.2-.737.332-1.177C273.65,335.871,266.118,338.361,266.118,338.361Z" transform="translate(-260.38 -319)" fill="#422549"/>
          <path id="Path_116-2" data-name="Path 116" d="M268.389,331.8c6.736.147,10.167,3.492,11.465,5.161.236-.455.487-.9.75-1.334C275.781,330.918,268.389,331.8,268.389,331.8Z" transform="translate(-258.822 -322.918)" fill="#422549"/>
          <path id="Path_117-2" data-name="Path 117" d="M281.672,333.937c.438-.283.846-.56,1.234-.83-3.546-4.841-10.083-4.847-10.083-4.847C277.339,328.744,280.465,332.315,281.672,333.937Z" transform="translate(-255.779 -325.305)" fill="#422549"/>
          <path id="Path_118-2" data-name="Path 118" d="M286.385,349.15a16.558,16.558,0,0,0,1.03-5.7s-.631-7.173-9.891-9.547c0,0,10.617,4.247,8.892,14.713Z" transform="translate(-252.554 -321.43)" fill="#422549"/>
          <path id="Path_119-2" data-name="Path 119" d="M275.391,343.107c1.742,1.445,2.811,2.88,5.856-.209l.712-.066a8.066,8.066,0,0,0-.45-1.467c-2.979.889-5.92-2.544-5.92-2.544.48,1.592,3.524,4.1,3.524,4.1-1.767.3-4.34-1.684-4.34-1.684a12.173,12.173,0,0,0,3.443,2.75,7.477,7.477,0,0,1-2.919-.961C275.327,343.055,275.359,343.082,275.391,343.107Z" transform="translate(-254.443 -318.059)"/>
          <path id="Path_120-2" data-name="Path 120" d="M278.321,343.093c.179-1.035.777-3.259,2.806-3.408s1.834,1.826,1.394,3.467-2.718,4.175-3.724,4.122S278.149,344.1,278.321,343.093Z" transform="translate(-252.149 -317.472)" fill="#703c28"/>
        </g>
        <path id="Path_121-2" data-name="Path 121" d="M287.017,368.392c-.062-1.984.5-9.892,4.858-11.582s8.577-2.31,8.528,9.036-.413,25.642.293,29.945.809,10.095-2.325,11.663-12.522,4.068-12.522,4.068,1.293-4.937-4.217-7.864l8.213-5.158s-.658-7.9-1.318-15.955S287.1,371.081,287.017,368.392Z" transform="translate(-194.126 -305.092)" fill="#b2165b"/>
        <path id="Path_122-2" data-name="Path 122" d="M244.063,459.073s-3.672,8.616-3.539,11.056,1.359,5.432,4.1,6.013,8.333-.791,10.022-5.348c1.062-2.856-.357-8.1.534-11.514s5.743-11.624,1.352-15.207c0,0-.811,5.969-1.045,9.086s-1.912,9.191-2.258,10.535-1.775,2.185-5.126,1.919C243.089,465.215,243.654,461.917,244.063,459.073Z" transform="translate(-222.331 -244.581)" fill="#afa604"/>
      </g>
    </g>
    <path id="Path_123-2" data-name="Path 123" d="M385.471,328.2a4.1,4.1,0,0,1-1.848,3.2l-6.613,3.817c-1.015.587-1.848.106-1.848-1.067v-7.636a4.1,4.1,0,0,1,1.848-3.2l6.613-3.819c1.017-.587,1.848-.106,1.848,1.067Z" transform="translate(-40.188 75.354)" fill="#fff" opacity="0.2"/>
    <path id="Path_124-2" data-name="Path 124" d="M374.02,355.515a4.1,4.1,0,0,1-1.848,3.2l-6.613,3.817c-1.015.587-1.848.106-1.848-1.067v-7.636a4.1,4.1,0,0,1,1.848-3.2l6.613-3.819c1.017-.587,1.848-.106,1.848,1.069Z" transform="translate(-48.044 94.094)" fill="#fff" opacity="0.2"/>
    <path id="Path_125-2" data-name="Path 125" d="M195.7,321.743a4.1,4.1,0,0,1-1.848,3.2l-6.613,3.819c-1.015.585-1.848.106-1.848-1.067v-7.636a4.1,4.1,0,0,1,1.848-3.2l6.613-3.817c1.017-.587,1.848-.106,1.848,1.067Z" transform="translate(-170.387 70.924)" fill="#fff" opacity="0.2"/>
    <path id="Path_126-2" data-name="Path 126" d="M225.439,387.455a4.1,4.1,0,0,1-1.848,3.2l-6.613,3.817c-1.017.587-1.848.106-1.848-1.067v-7.636a4.1,4.1,0,0,1,1.848-3.2l6.613-3.817c1.017-.587,1.848-.106,1.848,1.067Z" transform="translate(-149.981 116.007)" fill="#fff" opacity="0.2"/>
    <path id="Path_127-2" data-name="Path 127" d="M309.138,262.421a4.1,4.1,0,0,1-1.848,3.2l-6.613,3.819c-1.015.585-1.848.106-1.848-1.067v-7.636a4.1,4.1,0,0,1,1.848-3.2l6.613-3.817c1.017-.587,1.848-.106,1.848,1.067Z" transform="translate(-92.558 30.225)" fill="#fff" opacity="0.2"/>
    <path id="Path_128-2" data-name="Path 128" d="M355.753,324.781l17.992-10.388c1.017-.587,1.848-.106,1.848,1.067v8.783a4.1,4.1,0,0,1-1.846,3.2l-3.231,1.865v4.763l-4.011-2.448-10.752,6.208c-1.015.587-1.848.106-1.848-1.067v-8.783A4.1,4.1,0,0,1,355.753,324.781Z" transform="translate(-54.772 71.852)" fill="#fff" opacity="0.2"/>
    <path id="Path_129-2" data-name="Path 129" d="M222.494,365.5l17.99-10.386c1.017-.587,1.85-.108,1.85,1.067v8.783a4.1,4.1,0,0,1-1.848,3.2l-3.23,1.865v4.761l-4.011-2.446-10.75,6.206c-1.017.588-1.848.108-1.848-1.066V368.7A4.1,4.1,0,0,1,222.494,365.5Z" transform="translate(-146.197 99.788)" fill="#fff" opacity="0.2"/>
    <path id="Path_130-2" data-name="Path 130" d="M396.15,294.01,378.158,304.4a4.1,4.1,0,0,0-1.848,3.2v8.783c0,1.175.833,1.654,1.848,1.067l3.23-1.865v4.761l4.01-7.076,10.752-6.206a4.1,4.1,0,0,0,1.846-3.2v-8.781C398,293.9,397.167,293.423,396.15,294.01Z" transform="translate(-39.4 57.868)" fill="#fff" opacity="0.2"/>
    <path id="Path_131-2" data-name="Path 131" d="M221.127,353.668l-17.992,10.388a4.1,4.1,0,0,0-1.848,3.2v8.783c0,1.173.833,1.652,1.848,1.067l3.23-1.867V380l4.009-7.076,10.752-6.206a4.1,4.1,0,0,0,1.848-3.2v-8.783C222.975,353.562,222.144,353.081,221.127,353.668Z" transform="translate(-159.479 98.798)" fill="#fff" opacity="0.2"/>
    <g id="Group_55-2" data-name="Group 55" transform="translate(64.272 393.301)">
      <path id="Path_132-2" data-name="Path 132" d="M220.589,328.287a6.6,6.6,0,0,1-2.989,5.18c-1.651.953-2.989.18-2.989-1.727a6.607,6.607,0,0,1,2.989-5.178C219.252,325.608,220.589,326.382,220.589,328.287Z" transform="translate(-214.61 -313.209)" fill="#fff"/>
      <path id="Path_133-2" data-name="Path 133" d="M227.238,324.45a6.6,6.6,0,0,1-2.989,5.178c-1.651.954-2.989.18-2.989-1.727a6.607,6.607,0,0,1,2.989-5.178C225.9,321.77,227.238,322.543,227.238,324.45Z" transform="translate(-210.048 -315.842)" fill="#fff"/>
      <path id="Path_134-2" data-name="Path 134" d="M233.889,320.611a6.61,6.61,0,0,1-2.991,5.18c-1.651.953-2.989.18-2.989-1.727a6.613,6.613,0,0,1,2.989-5.18C232.55,317.931,233.889,318.7,233.889,320.611Z" transform="translate(-205.487 -318.476)" fill="#fff"/>
    </g>
    <g id="Group_56-2" data-name="Group 56" transform="translate(291.396 339.282)">
      <path id="Path_135-2" data-name="Path 135" d="M355.3,296.249a6.613,6.613,0,0,1-2.989,5.18c-1.652.953-2.991.18-2.991-1.727a6.6,6.6,0,0,1,2.991-5.178C353.958,293.57,355.3,294.342,355.3,296.249Z" transform="translate(-349.316 -281.17)" fill="#fff"/>
      <path id="Path_136-2" data-name="Path 136" d="M361.945,292.412a6.61,6.61,0,0,1-2.989,5.178c-1.652.953-2.991.18-2.991-1.727a6.6,6.6,0,0,1,2.991-5.178C360.605,289.731,361.945,290.5,361.945,292.412Z" transform="translate(-344.754 -283.804)" fill="#fff"/>
      <path id="Path_137-2" data-name="Path 137" d="M368.594,288.573a6.607,6.607,0,0,1-2.991,5.178c-1.651.954-2.989.18-2.989-1.725a6.613,6.613,0,0,1,2.989-5.18C367.256,285.892,368.594,286.666,368.594,288.573Z" transform="translate(-340.193 -286.438)" fill="#fff"/>
    </g>
    <g id="Group_57-2" data-name="Group 57" transform="translate(256.459 290.804)">
      <path id="Path_138-2" data-name="Path 138" d="M332.782,264.554a4.627,4.627,0,0,1-2.094,3.625c-1.155.666-2.092.125-2.092-1.209a4.628,4.628,0,0,1,2.092-3.625C331.844,262.678,332.782,263.219,332.782,264.554Z" transform="translate(-328.595 -253.998)" fill="#fff"/>
      <path id="Path_139-2" data-name="Path 139" d="M337.435,261.867a4.627,4.627,0,0,1-2.094,3.625c-1.155.666-2.092.126-2.092-1.209a4.628,4.628,0,0,1,2.092-3.625C336.5,259.991,337.435,260.532,337.435,261.867Z" transform="translate(-325.402 -255.842)" fill="#fff"/>
      <path id="Path_140-2" data-name="Path 140" d="M342.089,259.179A4.628,4.628,0,0,1,340,262.805c-1.155.666-2.092.125-2.092-1.209A4.63,4.63,0,0,1,340,257.971C341.152,257.3,342.089,257.845,342.089,259.179Z" transform="translate(-322.209 -257.685)" fill="#fff"/>
    </g>
    <g id="Group_58-2" data-name="Group 58" transform="translate(68.533 321.816)">
      <path id="Path_141-2" data-name="Path 141" d="M221.324,282.946a4.628,4.628,0,0,1-2.094,3.627c-1.155.666-2.092.125-2.092-1.209a4.625,4.625,0,0,1,2.092-3.625C220.386,281.071,221.324,281.612,221.324,282.946Z" transform="translate(-217.137 -272.391)" fill="#fff"/>
      <path id="Path_142-2" data-name="Path 142" d="M225.978,280.26a4.622,4.622,0,0,1-2.094,3.623c-1.155.668-2.092.126-2.092-1.207a4.628,4.628,0,0,1,2.092-3.625C225.04,278.384,225.978,278.925,225.978,280.26Z" transform="translate(-213.944 -274.235)" fill="#fff"/>
      <path id="Path_143-2" data-name="Path 143" d="M230.632,277.572a4.622,4.622,0,0,1-2.094,3.625c-1.155.668-2.092.126-2.092-1.207a4.628,4.628,0,0,1,2.092-3.625C229.694,275.7,230.632,276.238,230.632,277.572Z" transform="translate(-210.751 -276.078)" fill="#fff"/>
    </g>
    <g id="Group_59-2" data-name="Group 59" transform="translate(160.98 319.21)">
      <path id="Path_144-2" data-name="Path 144" d="M296.327,291.788l-23.35-13.482a2.029,2.029,0,0,1-.74-2.763h0A2.029,2.029,0,0,1,275,274.8l23.35,13.482a2.029,2.029,0,0,1,.74,2.763h0A2.029,2.029,0,0,1,296.327,291.788Z" transform="translate(-271.967 -274.533)" fill="url(#linear-gradient-34)"/>
      <path id="Path_145-2" data-name="Path 145" d="M290.893,288.493h0a2.026,2.026,0,0,1-.74-2.762h0a2.026,2.026,0,0,1,2.762-.74h0a2.026,2.026,0,0,1,.74,2.762h0A2.026,2.026,0,0,1,290.893,288.493Z" transform="translate(-259.676 -267.544)" fill="url(#linear-gradient-35)"/>
    </g>
  </g>
</svg>
